<?xml version="1.0" standalone="no"?>
<!DOCTYPE svg PUBLIC "-//W3C//DTD SVG 1.1//EN" "http://www.w3.org/Graphics/SVG/1.1/DTD/svg11.dtd" >
<svg xmlns="http://www.w3.org/2000/svg">
<metadata>
Created by FontPrep 20130207 at Wed Dec 30 10:27:27 2015
 By trafficseo
Copyright (C) 2004, 2012 Hoefler &#38; Frere-Jones. http://www.typography.com
</metadata>
<defs>
<font id="ccb96919a9a65601fefe49e76e578fd3" horiz-adv-x='1024' >
  <font-face 
    font-family="Tungsten-Medium"
    font-weight="350"
    font-stretch="normal"
    units-per-em="2048"
    panose-1="0 0 0 0 0 0 0 0 0 0"
    ascent="1638"
    descent="-410"
    x-height="1106"
    cap-height="1434"
    bbox="-47 -410 1319 1778"
    underline-thickness="102"
    underline-position="-102"
    unicode-range="U+0020-FB04"
  />
<missing-glyph 
d="M512 492l-367 -799h734zM922 1384l-353 -770l353 -770v1540zM102 -156l353 770l-353 770v-1540zM145 1536l367 -799l367 799h-734zM0 -410v2048h1024v-2048h-1024z" />
    <glyph glyph-name=".notdef" 
d="M512 492l-367 -799h734zM922 1384l-353 -770l353 -770v1540zM102 -156l353 770l-353 770v-1540zM145 1536l367 -799l367 799h-734zM0 -410v2048h1024v-2048h-1024z" />
    <glyph glyph-name=".null" horiz-adv-x="0" 
 />
    <glyph glyph-name="nonmarkingreturn" horiz-adv-x="681" 
 />
    <glyph glyph-name="space" unicode=" " horiz-adv-x="245" 
 />
    <glyph glyph-name="exclam" unicode="!" horiz-adv-x="323" 
d="M242 238v-238h-160v238h160zM82 1434h160v-330l-52 -703h-57l-51 703v330z" />
    <glyph glyph-name="quotedbl" unicode="&#x22;" horiz-adv-x="487" 
d="M459 1434l-82 -535h-101l31 535h152zM225 1434l-82 -535h-100l31 535h151z" />
    <glyph glyph-name="numbersign" unicode="#" horiz-adv-x="741" 
d="M293 918v-431l156 43v431zM596 1438v-267l109 29v-170l-109 -31v-430l109 31v-170l-109 -29v-405h-147v364l-156 -41v-323h-148v283l-108 -29v170l108 29v430l-108 -29v170l108 29v389h148v-348l156 40v308h147z" />
    <glyph glyph-name="dollar" unicode="$" horiz-adv-x="712" 
d="M645 463v-203q0 -246 -223 -264v-154h-131v154q-219 20 -219 260v295h159v-301q0 -109 109 -109h33q109 0 108 109v209q0 51 -16 80t-55 57l-201 145q-78 55 -108 115t-29 152v166q0 244 219 264v145h131v-145q219 -23 219 -260v-252h-160v258q0 109 -108 108h-29
q-109 0 -108 -108v-174q0 -51 17 -80t56 -58l199 -143q78 -57 108 -115t29 -151z" />
    <glyph glyph-name="percent" unicode="%" horiz-adv-x="933" 
d="M287 1313h-17q-78 0 -77 -80v-440q0 -80 77 -80h19q76 0 76 80v440q0 80 -78 80zM664 721h-19q-76 0 -76 -80v-440q0 -80 78 -80h17q78 0 77 80v440q1 80 -77 80zM295 584h-37q-201 0 -201 200v461q0 201 201 201h37q201 0 201 -201v-295l145 488h129l-192 -594
q29 6 61 6h37q201 0 201 -201v-461q0 -201 -201 -200h-37q-201 0 -201 200v293l-145 -485h-129l192 594q-28 -6 -61 -6z" />
    <glyph glyph-name="ampersand" unicode="&#x26;" horiz-adv-x="841" 
d="M348 137q45 0 66 24q20 24 43 89l30 94l-194 358l-29 -26q-61 -53 -61 -144v-296q0 -98 98 -99h47zM317 -12h-22q-250 0 -250 250v288q0 156 96 242l80 70l-47 86q-49 92 -49 211v61q0 250 250 250h37q246 0 245 -246v-211h-157v209q0 98 -99 98h-16q-98 0 -98 -98v-63
q0 -86 28 -142l248 -469l101 326h151l-153 -485l200 -365h-176l-98 176q-37 -106 -93 -147t-178 -41z" />
    <glyph glyph-name="quotesingle" unicode="'" horiz-adv-x="258" 
d="M229 1434l-82 -535h-104l31 535h155z" />
    <glyph glyph-name="parenleft" unicode="(" horiz-adv-x="425" 
d="M74 563v307q0 258 45 383t186 267l103 -43q-117 -161 -152 -267t-35 -338v-311q0 -231 35 -337t152 -267l-103 -43q-141 141 -186 266t-45 383z" />
    <glyph glyph-name="parenright" unicode=")" horiz-adv-x="425" 
d="M205 561v311q0 232 -35 338t-152 267l103 43q141 -140 186 -266t45 -384v-307q0 -258 -45 -383t-186 -266l-103 43q117 160 152 266t35 338z" />
    <glyph glyph-name="asterisk" unicode="*" horiz-adv-x="546" 
d="M518 1346v-121l-158 -80l158 -80v-121h-6l-190 109l6 -201h-109l4 201l-188 -109h-6v121l155 80l-155 80v121h6l188 -111l-4 203h109l-6 -203l190 111h6z" />
    <glyph glyph-name="plus" unicode="+" horiz-adv-x="638" 
d="M248 424v233h-228v142h228v233h147v-233h228v-142h-228v-233h-147z" />
    <glyph glyph-name="comma" unicode="," horiz-adv-x="282" 
d="M221 238v-158q0 -66 -10 -100t-43 -91l-43 -67l-66 18l25 54q27 61 33 106h-56v238h160z" />
    <glyph glyph-name="hyphen" unicode="-" horiz-adv-x="421" 
d="M33 647h356v-147h-356v147z" />
    <glyph glyph-name="period" unicode="." horiz-adv-x="282" 
d="M221 238v-238h-160v238h160z" />
    <glyph glyph-name="slash" unicode="/" horiz-adv-x="421" 
d="M414 1499l-267 -1565h-139l266 1565h140z" />
    <glyph glyph-name="zero" unicode="0" horiz-adv-x="733" 
d="M498 1188q0 109 -109 108h-45q-109 0 -108 -108v-942q0 -109 108 -109h45q109 0 109 109v942zM659 254q0 -266 -266 -266h-53q-266 0 -266 266v926q0 266 266 266h53q266 0 266 -266v-926z" />
    <glyph glyph-name="one" unicode="1" horiz-adv-x="405" 
d="M307 1440v-1440h-155v1178h-136v127q71 8 110 31q38 22 73 71l24 33h84z" />
    <glyph glyph-name="two" unicode="2" horiz-adv-x="692" 
d="M467 1188q0 109 -105 108h-32q-104 0 -105 -108v-270h-159v262q0 266 262 266h41q262 0 262 -266v-185q0 -147 -107 -278l-231 -291q-41 -51 -54 -88t-14 -102v-84h406v-152h-570v246q0 78 24 139t87 139l231 291q63 80 64 156v217z" />
    <glyph glyph-name="three" unicode="3" horiz-adv-x="710" 
d="M475 246v299q0 109 -104 108h-166v152h162q104 0 104 108v275q0 109 -104 108h-41q-104 0 -105 -108v-205h-160v197q0 266 267 266h41q266 0 266 -266v-226q0 -168 -119 -213q123 -35 123 -184v-303q0 -266 -266 -266h-54q-262 0 -262 262v227h160v-231q0 -109 109 -109
h41q108 0 108 109z" />
    <glyph glyph-name="four" unicode="4" horiz-adv-x="679" 
d="M418 414v760l-240 -760h240zM35 270v148l327 1016h203v-1020h101v-144h-101v-270h-147v270h-383z" />
    <glyph glyph-name="five" unicode="5" horiz-adv-x="702" 
d="M635 666v-412q0 -266 -262 -266h-41q-258 0 -258 262v248h159v-252q0 -109 105 -109h29q104 0 104 109v389q0 115 -94 115q-78 0 -158 -82h-137v766h532v-152h-381l-4 -448q85 68 185 68t160 -64q60 -63 61 -172z" />
    <glyph glyph-name="six" unicode="6" horiz-adv-x="716" 
d="M236 246q0 -109 104 -109h43q104 0 104 109v336q0 117 -110 116q-80 1 -141 -30v-422zM236 1188v-383q84 45 170 45h10q109 0 170 -66t61 -172v-358q0 -266 -266 -266h-41q-266 0 -266 266v926q0 266 266 266h43q133 0 195 -62t63 -196v-199h-158v199q0 109 -104 108h-39
q-104 1 -104 -108z" />
    <glyph glyph-name="seven" unicode="7" horiz-adv-x="571" 
d="M27 1282v152h501v-148l-282 -1286h-156l283 1282h-346z" />
    <glyph glyph-name="eight" unicode="8" horiz-adv-x="716" 
d="M340 805h37q109 0 108 108v277q0 109 -108 108h-37q-109 0 -109 -108v-277q0 -108 109 -108zM229 551v-307q0 -109 109 -109h41q109 0 108 109v307q0 109 -108 108h-41q-109 1 -109 -108zM342 1446h33q266 0 266 -266v-222q0 -168 -119 -213q123 -35 123 -184v-307
q0 -266 -266 -266h-41q-266 0 -266 266v307q0 150 123 184q-119 45 -119 213v222q0 266 266 266z" />
    <glyph glyph-name="nine" unicode="9" horiz-adv-x="712" 
d="M477 1188q0 109 -104 108h-39q-104 0 -105 -108v-352q0 -117 109 -117q78 0 139 31v438zM373 137q104 0 104 109v364q-80 -43 -170 -43h-6q-109 0 -170 66t-61 172v375q0 266 266 266h37q266 0 266 -266v-926q0 -266 -266 -266h-39q-135 0 -199 61q-63 61 -63 197v182
h157v-182q0 -109 105 -109h39z" />
    <glyph glyph-name="colon" unicode=":" horiz-adv-x="282" 
d="M221 1106v-238h-160v238h160zM221 238v-238h-160v238h160z" />
    <glyph glyph-name="semicolon" unicode=";" horiz-adv-x="282" 
d="M221 1106v-238h-160v238h160zM221 238v-158q0 -66 -10 -100t-43 -91l-43 -67l-66 18l25 54q27 61 33 106h-56v238h160z" />
    <glyph glyph-name="less" unicode="&#x3c;" horiz-adv-x="643" 
d="M31 829l557 193v-156l-430 -135l430 -131v-160l-557 189v200z" />
    <glyph glyph-name="equal" unicode="=" horiz-adv-x="643" 
d="M31 647h581v-141h-581v141zM31 950h581v-141h-581v141z" />
    <glyph glyph-name="greater" unicode="&#x3e;" horiz-adv-x="643" 
d="M55 1022l557 -193v-200l-557 -189v160l430 131l-430 135v156z" />
    <glyph glyph-name="question" unicode="?" horiz-adv-x="641" 
d="M387 238v-238h-160v238h160zM436 969v219q0 109 -104 108h-35q-104 0 -104 -108v-262h-152v254q0 266 266 266h27q266 0 266 -266v-199q0 -72 -22 -109t-95 -120l-75 -86q-27 -30 -29 -57t-2 -66v-154h-139v203q0 92 38 141q15 19 62 70l49 53q49 55 49 113z" />
    <glyph glyph-name="at" unicode="@" horiz-adv-x="1015" 
d="M479 186q45 0 113 45v322l-117 -41q-55 -18 -55 -82v-176q0 -68 59 -68zM791 66h-50q-61 0 -90 19t-41 67q-70 -88 -172 -89q-72 0 -110 42t-37 116v219q0 76 26 115q27 39 95 61l180 62v164q0 82 -76 82h-8q-80 0 -80 -82v-117h-127v123q0 201 199 201h22
q199 0 199 -201v-655q0 -57 53 -58h17q70 0 69 101v692q0 152 -54 209t-192 57h-213q-137 0 -191 -57t-54 -209v-746q0 -152 54 -209t191 -57h476v-70h-476q-179 0 -249 73t-70 263v746q0 186 73 261t246 75h213q174 0 247 -75t73 -261v-697q0 -89 -34 -127t-109 -38z" />
    <glyph glyph-name="A" unicode="A" horiz-adv-x="720" 
d="M356 1182l-110 -795h223zM686 0h-162l-35 240h-264l-32 -240h-158l221 1438h209z" />
    <glyph glyph-name="B" unicode="B" horiz-adv-x="718" 
d="M240 659v-512h137q109 0 108 109v283q0 121 -120 120h-125zM481 1178q0 109 -108 108h-133v-481h120q121 0 121 121v252zM647 508v-242q0 -266 -266 -266h-303v1434h299q266 0 266 -267v-211q0 -176 -125 -223q129 -51 129 -225z" />
    <glyph glyph-name="C" unicode="C" horiz-adv-x="724" 
d="M500 551h159v-297q0 -266 -266 -266h-53q-266 0 -266 266v926q0 266 266 266h53q262 0 262 -262v-258h-159v262q0 109 -109 108h-41q-109 0 -108 -108v-942q0 -109 108 -109h45q109 0 109 109v305z" />
    <glyph glyph-name="D" unicode="D" horiz-adv-x="739" 
d="M242 1284v-1134h98q162 0 162 165v803q0 166 -162 166h-98zM78 0v1434h270q317 0 318 -318v-799q0 -317 -318 -317h-270z" />
    <glyph glyph-name="E" unicode="E" horiz-adv-x="589" 
d="M78 1434h450v-152h-286v-475h276v-150h-276v-505h290v-152h-454v1434z" />
    <glyph glyph-name="F" unicode="F" horiz-adv-x="571" 
d="M78 1434h440v-152h-276v-479h266v-150h-266v-653h-164v1434z" />
    <glyph glyph-name="G" unicode="G" horiz-adv-x="737" 
d="M508 612h-133v150h293v-508q0 -266 -267 -266h-61q-266 0 -266 266v926q0 266 266 266h61q262 0 263 -262v-197h-160v201q0 109 -109 108h-49q-109 0 -108 -108v-942q0 -109 108 -109h53q109 0 109 109v366z" />
    <glyph glyph-name="H" unicode="H" horiz-adv-x="749" 
d="M242 809h266v625h164v-1434h-164v655h-266v-655h-164v1434h164v-625z" />
    <glyph glyph-name="I" unicode="I" horiz-adv-x="323" 
d="M244 1434v-1434h-164v1434h164z" />
    <glyph glyph-name="J" unicode="J" horiz-adv-x="479" 
d="M403 1434v-1168q0 -266 -266 -266h-100v152h90q113 0 113 112v1170h163z" />
    <glyph glyph-name="K" unicode="K" horiz-adv-x="708" 
d="M242 0h-164v1434h164v-695l282 695h174l-295 -705l287 -729h-180l-268 705v-705z" />
    <glyph glyph-name="L" unicode="L" horiz-adv-x="555" 
d="M78 1434h164v-1282h270v-152h-434v1434z" />
    <glyph glyph-name="M" unicode="M" horiz-adv-x="1032" 
d="M954 1434v-1434h-159v1186l-197 -1186h-168l-197 1186v-1186h-155v1434h258l182 -1131l182 1131h254z" />
    <glyph glyph-name="N" unicode="N" horiz-adv-x="774" 
d="M233 0h-155v1434h225l238 -1035v1035h155v-1434h-204l-259 1122v-1122z" />
    <glyph glyph-name="O" unicode="O" horiz-adv-x="741" 
d="M504 1188q0 109 -109 108h-49q-109 0 -108 -108v-942q0 -109 108 -109h49q109 0 109 109v942zM668 254q0 -266 -267 -266h-61q-266 0 -266 266v926q0 266 266 266h61q266 0 267 -266v-926z" />
    <glyph glyph-name="P" unicode="P" horiz-adv-x="681" 
d="M463 1176q0 109 -109 108h-112v-596h112q109 0 109 109v379zM242 539v-539h-164v1434h282q266 0 267 -267v-362q0 -266 -267 -266h-118z" />
    <glyph glyph-name="Q" unicode="Q" horiz-adv-x="741" 
d="M504 246v942q0 109 -109 108h-49q-109 0 -108 -108v-942q0 -109 108 -109h49q109 0 109 109zM668 1180v-901q0 -184 -125 -242l162 -64l-82 -129l-236 144h-47q-266 0 -266 266v926q0 266 266 266h61q267 0 267 -266z" />
    <glyph glyph-name="R" unicode="R" horiz-adv-x="724" 
d="M485 1176q0 109 -108 108h-135v-536h123q121 0 120 120v308zM651 483v-483h-164v477q0 125 -125 125h-120v-602h-164v1434h305q266 0 266 -267v-266q0 -174 -127 -225q129 -35 129 -193z" />
    <glyph glyph-name="S" unicode="S" horiz-adv-x="712" 
d="M645 463v-209q0 -266 -266 -266h-45q-262 0 -262 262v301h159v-307q0 -109 109 -109h33q109 0 108 109v215q0 51 -16 80t-55 57l-201 145q-78 55 -108 115t-29 152v172q0 266 266 266h41q262 0 262 -262v-258h-160v264q0 109 -108 108h-29q-109 0 -108 -108v-180
q0 -51 17 -80t56 -58l199 -143q78 -57 108 -115t29 -151z" />
    <glyph glyph-name="T" unicode="T" horiz-adv-x="634" 
d="M399 0h-163v1282h-216v152h594v-152h-215v-1282z" />
    <glyph glyph-name="U" unicode="U" horiz-adv-x="735" 
d="M659 1434v-1180q0 -266 -266 -266h-51q-266 0 -266 266v1180h164v-1188q0 -109 108 -109h39q109 0 109 109v1188h163z" />
    <glyph glyph-name="V" unicode="V" horiz-adv-x="704" 
d="M442 -4h-180l-227 1438h166l151 -1096l156 1096h162z" />
    <glyph glyph-name="W" unicode="W" horiz-adv-x="1110" 
d="M639 1434l131 -1221l127 1221h160l-174 -1434h-213l-117 1028l-113 -1028h-213l-174 1434h164l123 -1221l135 1221h164z" />
    <glyph glyph-name="X" unicode="X" horiz-adv-x="708" 
d="M666 1434l-213 -717l217 -717h-164l-154 557l-153 -557h-160l217 715l-213 719h164l149 -560l150 560h160z" />
    <glyph glyph-name="Y" unicode="Y" horiz-adv-x="661" 
d="M414 0h-164v489l-232 945h168l146 -703l151 703h162l-231 -932v-502z" />
    <glyph glyph-name="Z" unicode="Z" horiz-adv-x="583" 
d="M55 1284v150h486v-150l-332 -1134h332v-150h-496v150l332 1134h-322z" />
    <glyph glyph-name="bracketleft" unicode="[" horiz-adv-x="428" 
d="M410 61v-127h-320v1565h320v-127h-172v-1311h172z" />
    <glyph glyph-name="backslash" unicode="\" horiz-adv-x="421" 
d="M274 -66l-266 1565h139l267 -1565h-140z" />
    <glyph glyph-name="bracketright" unicode="]" horiz-adv-x="428" 
d="M18 -66v127h172v1311h-172v127h320v-1565h-320z" />
    <glyph glyph-name="asciicircum" unicode="^" horiz-adv-x="819" 
d="M481 1434l187 -420h-138l-120 278l-121 -278h-137l186 420h143z" />
    <glyph glyph-name="underscore" unicode="_" horiz-adv-x="911" 
d="M-4 -45h919v-139h-919v139z" />
    <glyph glyph-name="grave" unicode="`" 
d="M586 1413l73 -215h-104l-127 215h158z" />
    <glyph glyph-name="a" unicode="a" horiz-adv-x="653" 
d="M289 135q66 0 141 51v361l-141 -49q-43 -16 -59 -42t-17 -73v-168q0 -80 76 -80zM57 182v203q0 99 37 151t127 82l209 72v184q0 100 -98 101h-13q-98 0 -98 -101v-137h-151v131q0 250 249 250h17q250 0 250 -250v-868h-156v70q-86 -82 -190 -82q-183 -1 -183 194z" />
    <glyph glyph-name="b" unicode="b" horiz-adv-x="684" 
d="M461 225v656q0 90 -90 90q-76 -1 -144 -58v-720q68 -57 144 -58q90 0 90 90zM72 0v1454h155v-420q81 84 185 84t154 -59t50 -160v-692q0 -99 -50 -159t-154 -60t-185 80v-68h-155z" />
    <glyph glyph-name="c" unicode="c" horiz-adv-x="665" 
d="M446 692v182q0 98 -98 99h-29q-98 0 -98 -99v-643q0 -98 98 -98h31q98 0 99 98v220h153v-213q0 -250 -250 -250h-37q-250 0 -249 250v630q0 250 249 250h39q246 0 246 -246v-180h-154z" />
    <glyph glyph-name="d" unicode="d" horiz-adv-x="684" 
d="M223 881v-656q0 -90 90 -90q76 1 144 58v720q-68 57 -144 58q-90 0 -90 -90zM612 1454v-1454h-155v72q-81 -84 -185 -84t-154 59t-50 160v692q0 99 50 159t154 60t185 -80v416h155z" />
    <glyph glyph-name="e" unicode="e" horiz-adv-x="661" 
d="M221 874v-231h221v231q0 98 -98 99h-25q-98 -1 -98 -99zM598 496h-377v-265q0 -98 98 -98h29q98 0 98 98v127h152v-120q0 -250 -250 -250h-33q-250 0 -249 250v630q0 250 249 250h33q250 0 250 -250v-372z" />
    <glyph glyph-name="f" unicode="f" horiz-adv-x="401" 
d="M106 1106v125q0 223 224 223h63v-143h-57q-74 0 -74 -74v-131h125v-143h-125v-963h-156v963h-63v143h63z" />
    <glyph glyph-name="g" unicode="g" horiz-adv-x="684" 
d="M223 881v-531q0 -90 90 -90q74 0 144 53v600q-68 57 -144 58q-90 0 -90 -90zM612 1106v-1100q0 -240 -241 -239h-82q-217 0 -217 215v59h145v-53q0 -86 80 -86h80q80 0 80 86v200q-81 -76 -185 -76t-154 60q-50 59 -50 160v567q0 99 50 159t154 60t185 -80v68h155z" />
    <glyph glyph-name="h" unicode="h" horiz-adv-x="681" 
d="M72 0v1454h155v-420q88 84 197 84q188 0 188 -198v-920h-155v887q0 84 -80 84q-72 0 -150 -56v-915h-155z" />
    <glyph glyph-name="i" unicode="i" horiz-adv-x="311" 
d="M78 0v1106h155v-1106h-155zM74 1219v174h164v-174h-164z" />
    <glyph glyph-name="j" unicode="j" horiz-adv-x="311" 
d="M233 1106v-1129q0 -207 -206 -206h-27v139h4q74 0 74 74v1122h155zM74 1219v174h164v-174h-164z" />
    <glyph glyph-name="k" unicode="k" horiz-adv-x="643" 
d="M227 0h-155v1454h155v-885l242 537h166l-258 -541l250 -565h-170l-230 549v-549z" />
    <glyph glyph-name="l" unicode="l" horiz-adv-x="311" 
d="M78 0v1454h155v-1454h-155z" />
    <glyph glyph-name="m" unicode="m" horiz-adv-x="1042" 
d="M600 0h-156v891q0 80 -73 80q-66 0 -144 -56v-915h-155v1106h155v-72q88 84 198 84t155 -90q106 90 204 90q190 0 189 -194v-924h-156v891q1 79 -69 79t-148 -55v-915z" />
    <glyph glyph-name="n" unicode="n" horiz-adv-x="681" 
d="M72 0v1106h155v-72q88 84 197 84q188 0 188 -198v-920h-155v887q0 84 -80 84q-72 0 -150 -56v-915h-155z" />
    <glyph glyph-name="o" unicode="o" horiz-adv-x="675" 
d="M356 973h-37q-98 0 -98 -99v-643q0 -98 98 -98h37q98 0 99 98v643q-1 99 -99 99zM360 -12h-45q-250 0 -249 250v630q0 250 249 250h45q250 0 250 -250v-630q0 -250 -250 -250z" />
    <glyph glyph-name="p" unicode="p" horiz-adv-x="684" 
d="M461 881q0 90 -90 90q-76 0 -144 -58v-720q68 -57 144 -58q90 0 90 90v656zM616 207q0 -99 -50 -159t-154 -60t-185 80v-293h-155v1331h155v-72q81 84 185 84t154 -59t50 -160v-692z" />
    <glyph glyph-name="q" unicode="q" horiz-adv-x="684" 
d="M223 881v-656q0 -90 90 -90q76 1 144 58v720q-68 57 -144 58q-90 0 -90 -90zM612 1106v-1331h-155v297q-81 -84 -185 -84t-154 59t-50 160v692q0 99 50 159t154 60t185 -80v68h155z" />
    <glyph glyph-name="r" unicode="r" horiz-adv-x="434" 
d="M72 0v1106h155v-117q37 67 77 97t102 30v-176q-111 -8 -179 -70v-870h-155z" />
    <glyph glyph-name="s" unicode="s" horiz-adv-x="651" 
d="M434 717v166q0 94 -94 94h-27q-94 0 -94 -94v-97q0 -70 57 -104l185 -115q69 -45 99 -92t30 -127v-110q0 -250 -250 -250h-31q-246 0 -246 245v164h154v-174q0 -94 94 -94h31q94 0 94 94v105q0 68 -57 104l-184 115q-70 45 -100 92t-29 127v102q0 250 249 250h27
q246 0 246 -246v-155h-154z" />
    <glyph glyph-name="t" unicode="t" horiz-adv-x="409" 
d="M268 963v-963h-155v963h-74v143h74v184h155v-184h113v-143h-113z" />
    <glyph glyph-name="u" unicode="u" horiz-adv-x="681" 
d="M610 1106v-1106h-155v72q-88 -84 -197 -84q-188 0 -188 198v920h155v-887q0 -84 80 -84q72 0 150 55v916h155z" />
    <glyph glyph-name="v" unicode="v" horiz-adv-x="647" 
d="M410 0h-172l-201 1106h158l131 -864l131 864h153z" />
    <glyph glyph-name="w" unicode="w" horiz-adv-x="952" 
d="M586 0l-107 778l-112 -778h-160l-168 1106h154l96 -809l114 809h150l117 -809l94 809h149l-168 -1106h-159z" />
    <glyph glyph-name="x" unicode="x" horiz-adv-x="606" 
d="M168 0h-160l205 541l-201 565h164l129 -389l129 389h160l-203 -541l207 -565h-164l-133 391z" />
    <glyph glyph-name="y" unicode="y" horiz-adv-x="647" 
d="M350 -225h-153l51 239l-215 1092h157l136 -793l135 793h153z" />
    <glyph glyph-name="z" unicode="z" horiz-adv-x="532" 
d="M47 963v143h449v-143l-303 -820h303v-143h-459v143l299 820h-289z" />
    <glyph glyph-name="braceleft" unicode="{" horiz-adv-x="524" 
d="M172 420v158q0 35 -17 50t-57 23l-69 15v106l69 12q38 8 56 24t18 50v156q0 200 40 286t191 220l103 -43q-127 -145 -156 -219t-28 -242v-84q0 -166 -123 -213q123 -35 123 -184v-117q0 -170 28 -243t156 -218l-103 -43q-152 133 -191 220q-40 87 -40 286z" />
    <glyph glyph-name="bar" unicode="|" horiz-adv-x="552" 
d="M342 1563v-1700h-131v1700h131z" />
    <glyph glyph-name="braceright" unicode="}" horiz-adv-x="524" 
d="M352 578v-158q0 -199 -40 -286t-191 -220l-103 43q127 145 156 218t29 243v117q0 150 123 184q-123 47 -123 213v84q0 170 -29 242t-156 219l103 43q151 -132 191 -220t40 -286v-156q0 -35 18 -50t56 -24l70 -12v-106l-70 -15q-38 -8 -56 -23t-18 -50z" />
    <glyph glyph-name="asciitilde" unicode="~" horiz-adv-x="819" 
d="M297 815h6q39 0 103 -22l34 -13q61 -20 99 -20h8q90 0 151 61v-129q-59 -70 -155 -69h-4q-53 1 -127 27t-111 26h-4q-97 -1 -156 -62v131q59 70 156 70z" />
    <glyph glyph-name="uni00A0" unicode="&#xa0;" horiz-adv-x="245" 
 />
    <glyph glyph-name="exclamdown" unicode="&#xa1;" horiz-adv-x="323" 
d="M242 1434v-238h-160v238h160zM242 0h-160v330l51 702h57l52 -702v-330z" />
    <glyph glyph-name="cent" unicode="&#xa2;" horiz-adv-x="661" 
d="M440 874v177q0 98 -98 98h-20q-98 0 -99 -98v-660q0 -98 99 -98h22q98 0 98 98v213h152v-207q0 -217 -193 -245v-158h-135v156q-197 25 -196 247v647q0 221 196 246v150h135v-150q190 -29 191 -246v-170h-152z" />
    <glyph glyph-name="sterling" unicode="&#xa3;" horiz-adv-x="755" 
d="M49 571v148h84v461q0 266 266 266h33q262 0 262 -262v-238h-159v242q0 109 -105 108h-29q-104 0 -104 -108v-469h262v-148h-262v-419h401v-152h-649v152h84v419h-84z" />
    <glyph glyph-name="yen" unicode="&#xa5;" horiz-adv-x="659" 
d="M61 596h175l-213 838h163l144 -674l149 674h158l-215 -838h176v-113h-188v-96h188v-113h-188v-274h-160v274h-189v113h189v96h-189v113z" />
    <glyph glyph-name="section" unicode="&#xa7;" horiz-adv-x="714" 
d="M633 393v-139q0 -266 -266 -266h-29q-262 0 -262 262v176h153v-182q0 -109 109 -109h29q109 0 108 109v168q0 37 -18 55t-58 35l-186 76q-79 30 -105 66t-26 106v26l403 -164q86 -34 117 -78t31 -141zM82 1040v140q0 266 266 266h29q262 0 262 -262v-176h-154v182
q0 109 -108 108h-29q-109 0 -108 -108v-168q0 -37 18 -55t57 -35l187 -76q78 -30 104 -66t27 -106v-27l-404 164q-87 35 -117 79t-30 140z" />
    <glyph glyph-name="dieresis" unicode="&#xa8;" 
d="M463 1389v-191h-135v191h135zM561 1198v191h135v-191h-135z" />
    <glyph glyph-name="copyright" unicode="&#xa9;" horiz-adv-x="1015" 
d="M598 588h125v-217q0 -186 -197 -187h-28q-197 0 -197 187v694q0 186 197 186h26q195 0 195 -186v-186h-125v176q0 70 -70 69h-22q-72 0 -72 -69v-672q0 -39 16 -55t56 -17h24q72 0 72 72v205zM881 324v786q0 152 -65 220t-202 67h-213q-137 0 -201 -68t-65 -219v-786
q0 -152 65 -220t201 -67h213q137 -1 202 67t65 220zM934 1110v-786q0 -178 -77 -257t-243 -79h-213q-167 0 -243 79t-76 257v786q0 178 77 257t242 79h213q166 0 243 -79t77 -257z" />
    <glyph glyph-name="ordfeminine" unicode="&#xaa;" horiz-adv-x="468" 
d="M168 985q0 -47 44 -47t87 37v153l-90 -26q-41 -16 -41 -60v-57zM70 965v84q0 98 90 127l139 43v79q0 57 -57 58h-13q-57 0 -57 -58v-55h-96v66q0 137 151 137h19q152 0 151 -137v-459h-98v43q-61 -49 -117 -49h-4q-108 0 -108 121z" />
    <glyph glyph-name="guillemotleft" unicode="&#xab;" horiz-adv-x="493" 
d="M231 573l105 318h129l-86 -318l86 -317h-123zM10 573l119 318h129l-100 -318l100 -317h-123z" />
    <glyph glyph-name="registered" unicode="&#xae;" horiz-adv-x="606" 
d="M358 1118v96q0 35 -43 35h-57v-170h49q51 0 51 39zM436 1229v-109q0 -57 -57 -76q57 -14 57 -65v-164h-78v154q0 43 -53 43h-47v-197h-78v504h137q119 0 119 -90zM516 885v362q0 86 -35 123t-119 37h-118q-82 0 -118 -37t-36 -123v-362q0 -86 36 -123t118 -37h118
q82 0 118 37t36 123zM557 1247v-362q0 -107 -46 -153t-149 -46h-118q-102 0 -149 46q-46 46 -46 153v362q0 107 46 153t149 46h118q102 0 149 -46q46 -47 46 -153z" />
    <glyph glyph-name="macron" unicode="&#xaf;" 
d="M313 1348h398v-136h-398v136z" />
    <glyph glyph-name="degree" unicode="&#xb0;" horiz-adv-x="526" 
d="M354 901v340q0 76 -71 76h-35q-72 0 -72 -76v-340q0 -76 72 -76h35q71 0 71 76zM477 1260v-375q0 -186 -182 -187h-62q-184 0 -184 187v375q0 186 184 186h62q182 0 182 -186z" />
    <glyph glyph-name="plusminus" unicode="&#xb1;" horiz-adv-x="643" 
d="M20 446h603v-141h-603v141zM250 555v231h-227v142h227v231h147v-231h228v-142h-228v-231h-147z" />
    <glyph glyph-name="acute" unicode="&#xb4;" 
d="M406 1198l73 215h158l-127 -215h-104z" />
    <glyph glyph-name="paragraph" unicode="&#xb6;" horiz-adv-x="686" 
d="M481 1290h-114v-1290q-293 29 -293 350v731q0 352 352 353h182v-1434h-127v1290z" />
    <glyph glyph-name="periodcentered" unicode="&#xb7;" horiz-adv-x="282" 
d="M221 723v-238h-160v238h160z" />
    <glyph glyph-name="cedilla" unicode="&#xb8;" 
d="M604 0l-39 -193h-141l84 193h96z" />
    <glyph glyph-name="ordmasculine" unicode="&#xba;" horiz-adv-x="485" 
d="M266 844h-45q-152 0 -151 153v295q0 154 151 154h45q150 0 150 -154v-295q0 -153 -150 -153zM258 1354h-29q-59 0 -59 -64v-291q0 -63 59 -63h29q59 0 59 63v291q0 64 -59 64z" />
    <glyph glyph-name="guillemotright" unicode="&#xbb;" horiz-adv-x="493" 
d="M158 891l104 -318l-110 -317h-123l86 317l-86 318h129zM365 891l118 -318l-125 -317h-122l100 317l-100 318h129z" />
    <glyph glyph-name="questiondown" unicode="&#xbf;" horiz-adv-x="641" 
d="M254 1196v238h160v-238h-160zM205 465v-219q0 -109 104 -109h35q104 0 105 109v262h151v-254q0 -266 -266 -266h-27q-266 0 -266 266v199q-1 73 21 109t96 120l75 86q27 30 29 57t2 66v153h139v-202q0 -90 -38 -142q-15 -18 -62 -69l-49 -53q-49 -55 -49 -113z" />
    <glyph glyph-name="Agrave" unicode="&#xc0;" horiz-adv-x="720" 
d="M330 1700l86 -174h-105l-139 174h158zM356 1182l-110 -795h223zM686 0h-162l-35 240h-264l-32 -240h-158l221 1438h209z" />
    <glyph glyph-name="Aacute" unicode="&#xc1;" horiz-adv-x="720" 
d="M305 1526l86 174h158l-139 -174h-105zM356 1182l-110 -795h223zM686 0h-162l-35 240h-264l-32 -240h-158l221 1438h209z" />
    <glyph glyph-name="Acircumflex" unicode="&#xc2;" horiz-adv-x="720" 
d="M430 1716l139 -190h-108l-101 90l-100 -90h-108l139 190h139zM356 1182l-110 -795h223zM465 1438l221 -1438h-162l-35 240h-264l-32 -240h-158l221 1438h209z" />
    <glyph glyph-name="Atilde" unicode="&#xc3;" horiz-adv-x="720" 
d="M240 1720h6q53 0 96 -26l70 -43q20 -12 37 -13h2q18 0 18 25v57h104v-98q0 -96 -92 -96h-6q-53 0 -96 26l-70 43q-20 12 -37 13h-2q-18 0 -18 -25v-57h-105v98q1 96 93 96zM356 1182l-110 -795h223zM686 0h-162l-35 240h-264l-32 -240h-158l221 1438h209z" />
    <glyph glyph-name="Adieresis" unicode="&#xc4;" horiz-adv-x="720" 
d="M311 1675v-149h-139v149h139zM410 1526v149h139v-149h-139zM356 1182l-110 -795h223zM465 1438l221 -1438h-162l-35 240h-264l-32 -240h-158l221 1438h209z" />
    <glyph glyph-name="Aring" unicode="&#xc5;" horiz-adv-x="720" 
d="M504 1446v14q0 57 -80 58h-127q-80 0 -80 -58v-14q0 -57 80 -57h127q80 0 80 57zM356 1190l-110 -803h223zM555 1458v-10q0 -78 -78 -100l209 -1348h-162l-35 240h-264l-32 -240h-158l207 1348q-76 23 -76 100v10q0 104 125 105h139q125 -1 125 -105z" />
    <glyph glyph-name="AE" unicode="&#xc6;" horiz-adv-x="952" 
d="M440 387v913l-172 -913h172zM895 0h-455v240h-198l-45 -240h-158l293 1434h559v-152h-287v-475h277v-150h-277v-505h291v-152z" />
    <glyph glyph-name="Ccedilla" unicode="&#xc7;" horiz-adv-x="724" 
d="M500 551h159v-297q0 -250 -229 -264l-37 -183h-141l78 181q-256 6 -256 266v926q0 266 266 266h53q262 0 262 -262v-258h-159v262q0 109 -109 108h-41q-109 0 -108 -108v-942q0 -109 108 -109h45q109 0 109 109v305z" />
    <glyph glyph-name="Egrave" unicode="&#xc8;" horiz-adv-x="589" 
d="M274 1700l86 -174h-104l-139 174h157zM78 1434h450v-152h-286v-475h276v-150h-276v-505h290v-152h-454v1434z" />
    <glyph glyph-name="Eacute" unicode="&#xc9;" horiz-adv-x="589" 
d="M250 1526l86 174h158l-140 -174h-104zM78 1434h450v-152h-286v-475h276v-150h-276v-505h290v-152h-454v1434z" />
    <glyph glyph-name="Ecircumflex" unicode="&#xca;" horiz-adv-x="589" 
d="M375 1716l139 -190h-108l-101 90l-100 -90h-109l140 190h139zM78 1434h450v-152h-286v-475h276v-150h-276v-505h290v-152h-454v1434z" />
    <glyph glyph-name="Edieresis" unicode="&#xcb;" horiz-adv-x="589" 
d="M256 1675v-149h-139v149h139zM354 1526v149h140v-149h-140zM78 1434h450v-152h-286v-475h276v-150h-276v-505h290v-152h-454v1434z" />
    <glyph glyph-name="Igrave" unicode="&#xcc;" horiz-adv-x="323" 
d="M131 1700l86 -174h-104l-140 174h158zM244 1434v-1434h-164v1434h164z" />
    <glyph glyph-name="Iacute" unicode="&#xcd;" horiz-adv-x="323" 
d="M106 1526l87 174h157l-139 -174h-105zM244 1434v-1434h-164v1434h164z" />
    <glyph glyph-name="Icircumflex" unicode="&#xce;" horiz-adv-x="323" 
d="M231 1716l140 -190h-109l-100 90l-101 -90h-108l139 190h139zM244 1434v-1434h-164v1434h164z" />
    <glyph glyph-name="Idieresis" unicode="&#xcf;" horiz-adv-x="323" 
d="M113 1675v-149h-140v149h140zM211 1526v149h139v-149h-139zM244 1434v-1434h-164v1434h164z" />
    <glyph glyph-name="Eth" unicode="&#xd0;" horiz-adv-x="768" 
d="M270 1284v-487h156v-140h-156v-507h99q162 0 161 165v803q0 166 -161 166h-99zM106 0v657h-98v140h98v637h271q317 0 317 -318v-799q0 -317 -317 -317h-271z" />
    <glyph glyph-name="Ntilde" unicode="&#xd1;" horiz-adv-x="774" 
d="M266 1720h6q53 0 97 -26l69 -43q20 -12 37 -13h2q18 0 19 25v57h104v-98q0 -96 -92 -96h-6q-53 0 -96 26l-70 43q-20 12 -37 13h-2q-18 0 -18 -25v-57h-105v98q0 96 92 96zM541 1434h155v-1434h-204l-259 1122v-1122h-155v1434h225l238 -1035v1035z" />
    <glyph glyph-name="Ograve" unicode="&#xd2;" horiz-adv-x="741" 
d="M340 1700l86 -174h-104l-140 174h158zM504 1188q0 109 -109 108h-49q-109 0 -108 -108v-942q0 -109 108 -109h49q109 0 109 109v942zM668 254q0 -266 -267 -266h-61q-266 0 -266 266v926q0 266 266 266h61q266 0 267 -266v-926z" />
    <glyph glyph-name="Oacute" unicode="&#xd3;" horiz-adv-x="741" 
d="M315 1526l86 174h158l-139 -174h-105zM504 1188q0 109 -109 108h-49q-109 0 -108 -108v-942q0 -109 108 -109h49q109 0 109 109v942zM668 254q0 -266 -267 -266h-61q-266 0 -266 266v926q0 266 266 266h61q266 0 267 -266v-926z" />
    <glyph glyph-name="Ocircumflex" unicode="&#xd4;" horiz-adv-x="741" 
d="M440 1716l140 -190h-109l-100 90l-101 -90h-108l139 190h139zM504 1188q0 109 -109 108h-49q-109 0 -108 -108v-942q0 -109 108 -109h49q109 0 109 109v942zM668 254q0 -266 -267 -266h-61q-266 0 -266 266v926q0 266 266 266h61q266 0 267 -266v-926z" />
    <glyph glyph-name="Otilde" unicode="&#xd5;" horiz-adv-x="741" 
d="M250 1720h6q53 0 96 -26l70 -43q20 -12 37 -13h2q18 0 18 25v57h105v-98q0 -96 -92 -96h-7q-53 0 -96 26l-70 43q-20 12 -36 13h-2q-18 0 -19 -25v-57h-104v98q0 96 92 96zM504 1188q0 109 -109 108h-49q-109 0 -108 -108v-942q0 -109 108 -109h49q109 0 109 109v942z
M668 254q0 -266 -267 -266h-61q-266 0 -266 266v926q0 266 266 266h61q266 0 267 -266v-926z" />
    <glyph glyph-name="Odieresis" unicode="&#xd6;" horiz-adv-x="741" 
d="M322 1675v-149h-140v149h140zM420 1526v149h139v-149h-139zM504 1188q0 109 -109 108h-49q-109 0 -108 -108v-942q0 -109 108 -109h49q109 0 109 109v942zM668 254q0 -266 -267 -266h-61q-266 0 -266 266v926q0 266 266 266h61q266 0 267 -266v-926z" />
    <glyph glyph-name="multiply" unicode="&#xd7;" horiz-adv-x="643" 
d="M498 451l-176 176l-177 -176l-100 100l176 176l-176 176l102 103l177 -177l176 177l100 -101l-176 -176l176 -176z" />
    <glyph glyph-name="Oslash" unicode="&#xd8;" horiz-adv-x="741" 
d="M346 1296q-109 0 -108 -108l-2 -285l-3 -516l242 885q-29 25 -80 24h-49zM346 137h49q109 0 109 109l2 221l2 580l-242 -885q25 -25 80 -25zM668 254q0 -266 -267 -266h-61q-266 0 -266 266v926q0 266 266 266h61q266 0 267 -266v-926z" />
    <glyph glyph-name="Ugrave" unicode="&#xd9;" horiz-adv-x="735" 
d="M336 1700l86 -174h-105l-139 174h158zM659 1434v-1180q0 -266 -266 -266h-51q-266 0 -266 266v1180h164v-1188q0 -109 108 -109h39q109 0 109 109v1188h163z" />
    <glyph glyph-name="Uacute" unicode="&#xda;" horiz-adv-x="735" 
d="M311 1526l86 174h158l-139 -174h-105zM659 1434v-1180q0 -266 -266 -266h-51q-266 0 -266 266v1180h164v-1188q0 -109 108 -109h39q109 0 109 109v1188h163z" />
    <glyph glyph-name="Ucircumflex" unicode="&#xdb;" horiz-adv-x="735" 
d="M436 1716l139 -190h-108l-100 90l-101 -90h-108l139 190h139zM659 1434v-1180q0 -266 -266 -266h-51q-266 0 -266 266v1180h164v-1188q0 -109 108 -109h39q109 0 109 109v1188h163z" />
    <glyph glyph-name="Udieresis" unicode="&#xdc;" horiz-adv-x="735" 
d="M317 1675v-149h-139v149h139zM416 1526v149h139v-149h-139zM659 1434v-1180q0 -266 -266 -266h-51q-266 0 -266 266v1180h164v-1188q0 -109 108 -109h39q109 0 109 109v1188h163z" />
    <glyph glyph-name="Yacute" unicode="&#xdd;" horiz-adv-x="661" 
d="M276 1526l86 174h158l-139 -174h-105zM414 0h-164v489l-232 945h168l146 -703l151 703h162l-231 -932v-502z" />
    <glyph glyph-name="Thorn" unicode="&#xde;" horiz-adv-x="681" 
d="M463 911q0 109 -109 109h-112v-596h112q109 0 109 108v379zM242 274v-274h-164v1434h164v-265h118q266 0 267 -266v-362q0 -266 -267 -267h-118z" />
    <glyph glyph-name="germandbls" unicode="&#xdf;" horiz-adv-x="688" 
d="M623 569v-319q0 -250 -250 -250h-80v145h78q98 0 98 99v319q0 104 -104 105h-72v147h67q104 0 105 105v284q0 102 -103 103h-32q-102 0 -103 -103v-1204h-155v1200q0 254 254 254h39q254 0 253 -254v-233q0 -168 -118 -213q123 -35 123 -185z" />
    <glyph glyph-name="agrave" unicode="&#xe0;" horiz-adv-x="653" 
d="M322 1413l73 -215h-104l-127 215h158zM289 135q66 0 141 51v361l-141 -49q-43 -16 -59 -42t-17 -73v-168q0 -80 76 -80zM57 182v203q0 99 37 151t127 82l209 72v184q0 100 -98 101h-13q-98 0 -98 -101v-137h-151v131q0 250 249 250h17q250 0 250 -250v-868h-156v70
q-86 -82 -190 -82q-183 -1 -183 194z" />
    <glyph glyph-name="aacute" unicode="&#xe1;" horiz-adv-x="653" 
d="M285 1198l73 215h158l-127 -215h-104zM289 135q66 0 141 51v361l-141 -49q-43 -16 -59 -42t-17 -73v-168q0 -80 76 -80zM57 182v203q0 99 37 151t127 82l209 72v184q0 100 -98 101h-13q-98 0 -98 -101v-137h-151v131q0 250 249 250h17q250 0 250 -250v-868h-156v70
q-86 -82 -190 -82q-183 -1 -183 194z" />
    <glyph glyph-name="acircumflex" unicode="&#xe2;" horiz-adv-x="653" 
d="M410 1413l131 -215h-109l-92 109l-92 -109h-109l131 215h140zM289 135q66 0 141 51v361l-141 -49q-43 -16 -59 -42t-17 -73v-168q0 -80 76 -80zM57 182v203q0 99 37 151t127 82l209 72v184q0 100 -98 101h-13q-98 0 -98 -101v-137h-151v131q0 250 249 250h17
q250 0 250 -250v-868h-156v70q-86 -82 -190 -82q-183 -1 -183 194z" />
    <glyph glyph-name="atilde" unicode="&#xe3;" horiz-adv-x="653" 
d="M225 1413h4q53 0 103 -37l49 -37q33 -25 43 -24h2q18 0 18 24v74h105v-119q0 -96 -94 -96h-4q-53 0 -103 37l-49 37q-33 25 -43 24h-2q-18 0 -18 -24v-74h-105v119q0 96 94 96zM289 135q66 0 141 51v361l-141 -49q-43 -16 -59 -42t-17 -73v-168q0 -80 76 -80zM57 182v203
q0 99 37 151t127 82l209 72v184q0 100 -98 101h-13q-98 0 -98 -101v-137h-151v131q0 250 249 250h17q250 0 250 -250v-868h-156v70q-86 -82 -190 -82q-183 -1 -183 194z" />
    <glyph glyph-name="adieresis" unicode="&#xe4;" horiz-adv-x="653" 
d="M291 1389v-191h-135v191h135zM389 1198v191h135v-191h-135zM289 135q66 0 141 51v361l-141 -49q-43 -16 -59 -42t-17 -73v-168q0 -80 76 -80zM57 182v203q0 99 37 151t127 82l209 72v184q0 100 -98 101h-13q-98 0 -98 -101v-137h-151v131q0 250 249 250h17
q250 0 250 -250v-868h-156v70q-86 -82 -190 -82q-183 -1 -183 194z" />
    <glyph glyph-name="aring" unicode="&#xe5;" horiz-adv-x="653" 
d="M459 1300v11q0 63 -86 63h-66q-86 0 -86 -63v-11q0 -63 88 -63h64q86 0 86 63zM510 1311v-11q0 -109 -129 -108h-82q-129 0 -129 108v11q0 109 129 108h82q129 1 129 -108zM289 135q66 0 141 51v361l-141 -49q-43 -16 -59 -42t-17 -73v-168q0 -80 76 -80zM57 182v203
q0 99 37 151t127 82l209 72v184q0 100 -98 101h-13q-98 0 -98 -101v-137h-151v131q0 250 249 250h17q250 0 250 -250v-868h-156v70q-86 -82 -190 -82q-183 -1 -183 194z" />
    <glyph glyph-name="ae" unicode="&#xe6;" horiz-adv-x="1056" 
d="M616 874v-231h222v231q0 98 -99 99h-24q-99 -1 -99 -99zM244 395v-180q0 -80 75 -80q66 0 142 51v373l-142 -49q-43 -14 -59 -40t-16 -75zM711 1118h32q250 0 250 -250v-372h-377v-265q0 -98 99 -98h28q98 0 99 98v144h151v-137q0 -250 -250 -250h-32q-152 0 -213 94
q-80 -54 -125 -74t-103 -20q-182 0 -182 194v215q0 99 37 151t127 83l209 71v172q0 100 -99 101h-12q-98 0 -98 -101v-137h-152v131q0 250 250 250h17q115 0 172 -67q57 67 172 67z" />
    <glyph glyph-name="ccedilla" unicode="&#xe7;" horiz-adv-x="665" 
d="M446 692v182q0 98 -98 99h-29q-98 0 -98 -99v-643q0 -98 98 -98h31q98 0 99 98v220h153v-213q0 -231 -215 -248l-37 -183h-141l78 183q-221 12 -221 248v630q0 250 249 250h39q246 0 246 -246v-180h-154z" />
    <glyph glyph-name="egrave" unicode="&#xe8;" horiz-adv-x="661" 
d="M313 1413l74 -215h-104l-127 215h157zM221 874v-231h221v231q0 98 -98 99h-25q-98 -1 -98 -99zM598 496h-377v-265q0 -98 98 -98h29q98 0 98 98v127h152v-120q0 -250 -250 -250h-33q-250 0 -249 250v630q0 250 249 250h33q250 0 250 -250v-372z" />
    <glyph glyph-name="eacute" unicode="&#xe9;" horiz-adv-x="661" 
d="M276 1198l74 215h158l-127 -215h-105zM221 874v-231h221v231q0 98 -98 99h-25q-98 -1 -98 -99zM598 496h-377v-265q0 -98 98 -98h29q98 0 98 98v127h152v-120q0 -250 -250 -250h-33q-250 0 -249 250v630q0 250 249 250h33q250 0 250 -250v-372z" />
    <glyph glyph-name="ecircumflex" unicode="&#xea;" horiz-adv-x="661" 
d="M401 1413l131 -215h-108l-92 109l-92 -109h-109l131 215h139zM221 874v-231h221v231q0 98 -98 99h-25q-98 -1 -98 -99zM598 496h-377v-265q0 -98 98 -98h29q98 0 98 98v127h152v-120q0 -250 -250 -250h-33q-250 0 -249 250v630q0 250 249 250h33q250 0 250 -250v-372z
" />
    <glyph glyph-name="edieresis" unicode="&#xeb;" horiz-adv-x="661" 
d="M283 1389v-191h-136v191h136zM381 1198v191h135v-191h-135zM221 874v-231h221v231q0 98 -98 99h-25q-98 -1 -98 -99zM598 496h-377v-265q0 -98 98 -98h29q98 0 98 98v127h152v-120q0 -250 -250 -250h-33q-250 0 -249 250v630q0 250 249 250h33q250 0 250 -250v-372z" />
    <glyph glyph-name="igrave" unicode="&#xec;" horiz-adv-x="311" 
d="M137 1413l74 -215h-105l-126 215h157zM78 0v1106h155v-1106h-155z" />
    <glyph glyph-name="iacute" unicode="&#xed;" horiz-adv-x="311" 
d="M100 1198l74 215h158l-127 -215h-105zM78 0v1106h155v-1106h-155z" />
    <glyph glyph-name="icircumflex" unicode="&#xee;" horiz-adv-x="311" 
d="M225 1413l131 -215h-108l-92 109l-93 -109h-108l131 215h139zM78 0v1106h155v-1106h-155z" />
    <glyph glyph-name="idieresis" unicode="&#xef;" horiz-adv-x="311" 
d="M106 1389v-191h-135v191h135zM205 1198v191h135v-191h-135zM78 0v1106h155v-1106h-155z" />
    <glyph glyph-name="eth" unicode="&#xf0;" horiz-adv-x="679" 
d="M356 973h-37q-98 0 -98 -99v-643q0 -98 98 -98h37q98 0 99 98v643q-1 99 -99 99zM610 1126v-888q0 -250 -250 -250h-45q-250 0 -249 250v657q0 99 50 159t156 60t191 -70v62q-1 47 -19 70t-69 45l-199 88l70 133l162 -74l49 86h147l-86 -139q92 -59 92 -189z" />
    <glyph glyph-name="ntilde" unicode="&#xf1;" horiz-adv-x="681" 
d="M227 1413h4q53 0 103 -37l49 -37q35 -25 43 -24h2q18 0 18 24v74h105v-119q0 -96 -94 -96h-4q-53 0 -103 37l-49 37q-35 25 -43 24h-2q-18 0 -18 -24v-74h-105v119q0 96 94 96zM72 0v1106h155v-72q88 84 197 84q188 0 188 -198v-920h-155v887q0 84 -80 84q-72 0 -150 -56
v-915h-155z" />
    <glyph glyph-name="ograve" unicode="&#xf2;" horiz-adv-x="675" 
d="M319 1413l74 -215h-104l-127 215h157zM356 973h-37q-98 0 -98 -99v-643q0 -98 98 -98h37q98 0 99 98v643q-1 99 -99 99zM360 -12h-45q-250 0 -249 250v630q0 250 249 250h45q250 0 250 -250v-630q0 -250 -250 -250z" />
    <glyph glyph-name="oacute" unicode="&#xf3;" horiz-adv-x="675" 
d="M283 1198l73 215h158l-127 -215h-104zM356 973h-37q-98 0 -98 -99v-643q0 -98 98 -98h37q98 0 99 98v643q-1 99 -99 99zM360 -12h-45q-250 0 -249 250v630q0 250 249 250h45q250 0 250 -250v-630q0 -250 -250 -250z" />
    <glyph glyph-name="ocircumflex" unicode="&#xf4;" horiz-adv-x="675" 
d="M408 1413l131 -215h-109l-92 109l-92 -109h-109l131 215h140zM356 973h-37q-98 0 -98 -99v-643q0 -98 98 -98h37q98 0 99 98v643q-1 99 -99 99zM360 -12h-45q-250 0 -249 250v630q0 250 249 250h45q250 0 250 -250v-630q0 -250 -250 -250z" />
    <glyph glyph-name="otilde" unicode="&#xf5;" horiz-adv-x="675" 
d="M223 1413h4q53 0 103 -37l49 -37q33 -25 43 -24h2q18 0 18 24v74h105v-119q0 -96 -94 -96h-4q-53 0 -103 37l-49 37q-33 25 -43 24h-2q-18 0 -19 -24v-74h-104v119q0 96 94 96zM356 973h-37q-98 0 -98 -99v-643q0 -98 98 -98h37q98 0 99 98v643q-1 99 -99 99zM360 -12
h-45q-250 0 -249 250v630q0 250 249 250h45q250 0 250 -250v-630q0 -250 -250 -250z" />
    <glyph glyph-name="odieresis" unicode="&#xf6;" horiz-adv-x="675" 
d="M289 1389v-191h-135v191h135zM387 1198v191h135v-191h-135zM356 973h-37q-98 0 -98 -99v-643q0 -98 98 -98h37q98 0 99 98v643q-1 99 -99 99zM360 -12h-45q-250 0 -249 250v630q0 250 249 250h45q250 0 250 -250v-630q0 -250 -250 -250z" />
    <glyph glyph-name="divide" unicode="&#xf7;" horiz-adv-x="643" 
d="M244 399v160h155v-160h-155zM244 897v160h155v-160h-155zM20 799h603v-142h-603v142z" />
    <glyph glyph-name="oslash" unicode="&#xf8;" horiz-adv-x="675" 
d="M319 973q-98 0 -98 -99v-65l-4 -533l201 682q-23 14 -62 15h-37zM455 231v76l4 522l-201 -682q20 -14 61 -14h37q99 0 99 98zM360 -12h-45q-250 0 -249 250v630q0 250 249 250h45q250 0 250 -250v-630q0 -250 -250 -250z" />
    <glyph glyph-name="ugrave" unicode="&#xf9;" horiz-adv-x="681" 
d="M322 1413l73 -215h-104l-127 215h158zM610 1106v-1106h-155v72q-88 -84 -197 -84q-188 0 -188 198v920h155v-887q0 -84 80 -84q72 0 150 55v916h155z" />
    <glyph glyph-name="uacute" unicode="&#xfa;" horiz-adv-x="681" 
d="M285 1198l73 215h158l-127 -215h-104zM610 1106v-1106h-155v72q-88 -84 -197 -84q-188 0 -188 198v920h155v-887q0 -84 80 -84q72 0 150 55v916h155z" />
    <glyph glyph-name="ucircumflex" unicode="&#xfb;" horiz-adv-x="681" 
d="M410 1413l131 -215h-109l-92 109l-92 -109h-109l131 215h140zM610 1106v-1106h-155v72q-88 -84 -197 -84q-188 0 -188 198v920h155v-887q0 -84 80 -84q72 0 150 55v916h155z" />
    <glyph glyph-name="udieresis" unicode="&#xfc;" horiz-adv-x="681" 
d="M389 1198v191h135v-191h-135zM291 1389v-191h-135v191h135zM610 1106v-1106h-155v72q-88 -84 -197 -84q-188 0 -188 198v920h155v-887q0 -84 80 -84q72 0 150 55v916h155z" />
    <glyph glyph-name="yacute" unicode="&#xfd;" horiz-adv-x="647" 
d="M272 1198l74 215h158l-127 -215h-105zM350 -225h-153l51 239l-215 1092h157l136 -793l135 793h153z" />
    <glyph glyph-name="thorn" unicode="&#xfe;" horiz-adv-x="684" 
d="M461 225v656q0 90 -90 90q-76 -1 -144 -58v-720q68 -57 144 -58q90 0 90 90zM72 1454h155v-420q81 84 185 84t154 -59t50 -160v-692q0 -99 -50 -159t-156 -60t-183 84v-297h-155v1679z" />
    <glyph glyph-name="ydieresis" unicode="&#xff;" horiz-adv-x="647" 
d="M377 1198v191h135v-191h-135zM279 1389v-191h-136v191h136zM350 -225h-153l51 239l-215 1092h157l136 -793l135 793h153z" />
    <glyph glyph-name="Amacron" unicode="&#x100;" horiz-adv-x="720" 
d="M162 1655h397v-115h-397v115zM356 1182l-110 -795h223zM686 0h-162l-35 240h-264l-32 -240h-158l221 1438h209z" />
    <glyph glyph-name="amacron" unicode="&#x101;" horiz-adv-x="653" 
d="M141 1348h398v-136h-398v136zM289 135q66 0 141 51v361l-141 -49q-43 -16 -59 -42t-17 -73v-168q0 -80 76 -80zM57 182v203q0 99 37 151t127 82l209 72v184q0 100 -98 101h-13q-98 0 -98 -101v-137h-151v131q0 250 249 250h17q250 0 250 -250v-868h-156v70
q-86 -82 -190 -82q-183 -1 -183 194z" />
    <glyph glyph-name="Abreve" unicode="&#x102;" horiz-adv-x="720" 
d="M174 1673v27h115v-17q0 -57 63 -57h17q63 0 63 57v17h115v-27q0 -154 -170 -153h-33q-170 -1 -170 153zM356 1182l-110 -795h223zM465 1438l221 -1438h-162l-35 240h-264l-32 -240h-158l221 1438h209z" />
    <glyph glyph-name="abreve" unicode="&#x103;" horiz-adv-x="653" 
d="M158 1362v51h114v-51q0 -63 64 -64h8q63 0 64 64v51h114v-51q0 -170 -170 -170h-24q-170 0 -170 170zM289 135q66 0 141 51v361l-141 -49q-43 -16 -59 -42t-17 -73v-168q0 -80 76 -80zM57 182v203q0 99 37 151t127 82l209 72v184q0 100 -98 101h-13q-98 0 -98 -101v-137
h-151v131q0 250 249 250h17q250 0 250 -250v-868h-156v70q-86 -82 -190 -82q-183 -1 -183 194z" />
    <glyph glyph-name="Aogonek" unicode="&#x104;" horiz-adv-x="720" 
d="M356 1182l-110 -795h223zM627 -88q0 -24 24 -23h47v-98h-82q-109 0 -108 92v8q0 41 41 105l2 4h-27l-35 240h-264l-32 -240h-158l221 1438h209l221 -1438h-22l-17 -29q-20 -35 -20 -59z" />
    <glyph glyph-name="aogonek" unicode="&#x105;" horiz-adv-x="653" 
d="M289 135q66 0 141 51v361l-141 -49q-43 -16 -59 -42t-17 -73v-168q0 -80 76 -80zM57 182v203q0 99 37 151t127 82l209 72v184q0 100 -98 101h-13q-98 0 -98 -101v-137h-151v131q0 250 249 250h17q250 0 250 -250v-868h-21l-16 -29q-20 -35 -21 -59q0 -23 25 -23h47v-98
h-82q-109 0 -108 92v8q0 41 41 105l2 4h-23v70q-86 -82 -190 -82q-183 -1 -183 194z" />
    <glyph glyph-name="Cacute" unicode="&#x106;" horiz-adv-x="724" 
d="M311 1526l86 174h158l-139 -174h-105zM500 551h159v-297q0 -266 -266 -266h-53q-266 0 -266 266v926q0 266 266 266h53q262 0 262 -262v-258h-159v262q0 109 -109 108h-41q-109 0 -108 -108v-942q0 -109 108 -109h45q109 0 109 109v305z" />
    <glyph glyph-name="cacute" unicode="&#x107;" horiz-adv-x="665" 
d="M279 1198l73 215h158l-127 -215h-104zM446 692v182q0 98 -98 99h-29q-98 0 -98 -99v-643q0 -98 98 -98h31q98 0 99 98v220h153v-213q0 -250 -250 -250h-37q-250 0 -249 250v630q0 250 249 250h39q246 0 246 -246v-180h-154z" />
    <glyph glyph-name="Cdotaccent" unicode="&#x10a;" horiz-adv-x="724" 
d="M438 1659v-133h-143v133h143zM500 551h159v-297q0 -266 -266 -266h-53q-266 0 -266 266v926q0 266 266 266h53q262 0 262 -262v-258h-159v262q0 109 -109 108h-41q-109 0 -108 -108v-942q0 -109 108 -109h45q109 0 109 109v305z" />
    <glyph glyph-name="cdotaccent" unicode="&#x10b;" horiz-adv-x="665" 
d="M403 1372v-174h-139v174h139zM446 692v182q0 98 -98 99h-29q-98 0 -98 -99v-643q0 -98 98 -98h31q98 0 99 98v220h153v-213q0 -250 -250 -250h-37q-250 0 -249 250v630q0 250 249 250h39q246 0 246 -246v-180h-154z" />
    <glyph glyph-name="Ccaron" unicode="&#x10c;" horiz-adv-x="724" 
d="M575 1716l-139 -190h-139l-139 190h108l101 -90l100 90h108zM500 551h159v-297q0 -266 -266 -266h-53q-266 0 -266 266v926q0 266 266 266h53q262 0 262 -262v-258h-159v262q0 109 -109 108h-41q-109 0 -108 -108v-942q0 -109 108 -109h45q109 0 109 109v305z" />
    <glyph glyph-name="ccaron" unicode="&#x10d;" horiz-adv-x="665" 
d="M535 1413l-132 -215h-139l-131 215h109l92 -108l92 108h109zM446 692v182q0 98 -98 99h-29q-98 0 -98 -99v-643q0 -98 98 -98h31q98 0 99 98v220h153v-213q0 -250 -250 -250h-37q-250 0 -249 250v630q0 250 249 250h39q246 0 246 -246v-180h-154z" />
    <glyph glyph-name="Dcaron" unicode="&#x10e;" horiz-adv-x="739" 
d="M567 1716l-139 -190h-139l-139 190h108l100 -90l101 90h108zM242 1284v-1134h98q162 0 162 165v803q0 166 -162 166h-98zM78 0v1434h270q317 0 318 -318v-799q0 -317 -318 -317h-270z" />
    <glyph glyph-name="dcaron" unicode="&#x10f;" horiz-adv-x="684" 
d="M670 1212v242h127l-54 -242h-73zM223 881v-656q0 -90 90 -90q76 1 144 58v720q-68 57 -144 58q-90 0 -90 -90zM612 1454v-1454h-155v72q-81 -84 -185 -84t-154 59t-50 160v692q0 99 50 159t154 60t185 -80v416h155z" />
    <glyph glyph-name="Dcroat" unicode="&#x110;" horiz-adv-x="768" 
d="M270 1284v-487h156v-140h-156v-507h99q162 0 161 165v803q0 166 -161 166h-99zM106 0v657h-98v140h98v637h271q317 0 317 -318v-799q0 -317 -317 -317h-271z" />
    <glyph glyph-name="dcroat" unicode="&#x111;" horiz-adv-x="712" 
d="M223 881v-656q0 -90 90 -90q76 1 144 58v720q-68 57 -144 58q-90 0 -90 -90zM612 1454v-131h72v-121h-72v-1202h-155v72q-81 -84 -185 -84t-154 59t-50 160v692q0 99 50 159t154 60t185 -80v164h-205v121h205v131h155z" />
    <glyph glyph-name="Emacron" unicode="&#x112;" horiz-adv-x="589" 
d="M106 1655h398v-115h-398v115zM78 1434h450v-152h-286v-475h276v-150h-276v-505h290v-152h-454v1434z" />
    <glyph glyph-name="emacron" unicode="&#x113;" horiz-adv-x="661" 
d="M133 1348h397v-136h-397v136zM221 874v-231h221v231q0 98 -98 99h-25q-98 -1 -98 -99zM598 496h-377v-265q0 -98 98 -98h29q98 0 98 98v127h152v-120q0 -250 -250 -250h-33q-250 0 -249 250v630q0 250 249 250h33q250 0 250 -250v-372z" />
    <glyph glyph-name="Ebreve" unicode="&#x114;" horiz-adv-x="589" 
d="M119 1673v27h114v-17q0 -57 64 -57h16q63 0 64 57v17h115v-27q0 -154 -170 -153h-33q-170 -1 -170 153zM78 1434h450v-152h-286v-475h276v-150h-276v-505h290v-152h-454v1434z" />
    <glyph glyph-name="ebreve" unicode="&#x115;" horiz-adv-x="661" 
d="M150 1362v51h114v-51q0 -63 64 -64h8q63 0 63 64v51h115v-51q0 -170 -170 -170h-25q-169 0 -169 170zM221 874v-231h221v231q0 98 -98 99h-25q-98 -1 -98 -99zM598 496h-377v-265q0 -98 98 -98h29q98 0 98 98v127h152v-120q0 -250 -250 -250h-33q-250 0 -249 250v630
q0 250 249 250h33q250 0 250 -250v-372z" />
    <glyph glyph-name="Edotaccent" unicode="&#x116;" horiz-adv-x="589" 
d="M377 1659v-133h-144v133h144zM78 1434h450v-152h-286v-475h276v-150h-276v-505h290v-152h-454v1434z" />
    <glyph glyph-name="edotaccent" unicode="&#x117;" horiz-adv-x="661" 
d="M401 1372v-174h-139v174h139zM221 874v-231h221v231q0 98 -98 99h-25q-98 -1 -98 -99zM598 496h-377v-265q0 -98 98 -98h29q98 0 98 98v127h152v-120q0 -250 -250 -250h-33q-250 0 -249 250v630q0 250 249 250h33q250 0 250 -250v-372z" />
    <glyph glyph-name="Eogonek" unicode="&#x118;" horiz-adv-x="589" 
d="M78 1434h450v-152h-286v-475h276v-150h-276v-505h290v-152h-34l-17 -29q-20 -35 -20 -59t24 -23h47v-98h-81q-109 0 -109 92v8q0 41 41 105l2 4h-307v1434z" />
    <glyph glyph-name="eogonek" unicode="&#x119;" horiz-adv-x="661" 
d="M221 874v-231h221v231q0 98 -98 99h-25q-98 -1 -98 -99zM598 496h-377v-265q0 -98 98 -98h29q98 0 98 98v127h152v-120q0 -80 -27 -138l-63 -129q-20 -39 -21 -59q0 -23 25 -23h47v-98h-82q-109 0 -108 92v8q0 39 34 101q-41 -4 -55 -4h-33q-250 0 -249 250v630
q0 250 249 250h33q250 0 250 -250v-372z" />
    <glyph glyph-name="Ecaron" unicode="&#x11a;" horiz-adv-x="589" 
d="M514 1716l-139 -190h-139l-140 190h109l100 -90l101 90h108zM78 1434h450v-152h-286v-475h276v-150h-276v-505h290v-152h-454v1434z" />
    <glyph glyph-name="ecaron" unicode="&#x11b;" horiz-adv-x="661" 
d="M532 1413l-131 -215h-139l-131 215h109l92 -108l92 108h108zM221 874v-231h221v231q0 98 -98 99h-25q-98 -1 -98 -99zM598 496h-377v-265q0 -98 98 -98h29q98 0 98 98v127h152v-120q0 -250 -250 -250h-33q-250 0 -249 250v630q0 250 249 250h33q250 0 250 -250v-372z" />
    <glyph glyph-name="Gbreve" unicode="&#x11e;" horiz-adv-x="737" 
d="M184 1673v27h115v-17q0 -57 63 -57h17q63 0 63 57v17h115v-27q0 -154 -170 -153h-33q-170 -1 -170 153zM508 612h-133v150h293v-508q0 -266 -267 -266h-61q-266 0 -266 266v926q0 266 266 266h61q262 0 263 -262v-197h-160v201q0 109 -109 108h-49q-109 0 -108 -108v-942
q0 -109 108 -109h53q109 0 109 109v366z" />
    <glyph glyph-name="gbreve" unicode="&#x11f;" horiz-adv-x="684" 
d="M176 1362v51h115v-51q0 -63 63 -64h8q63 0 64 64v51h115v-51q0 -170 -170 -170h-25q-170 0 -170 170zM223 881v-531q0 -90 90 -90q74 0 144 53v600q-68 57 -144 58q-90 0 -90 -90zM612 1106v-1100q0 -240 -241 -239h-82q-217 0 -217 215v59h145v-53q0 -86 80 -86h80
q80 0 80 86v200q-81 -76 -185 -76t-154 60q-50 59 -50 160v567q0 99 50 159t154 60t185 -80v68h155z" />
    <glyph glyph-name="Gdotaccent" unicode="&#x120;" horiz-adv-x="737" 
d="M442 1659v-133h-143v133h143zM508 612h-133v150h293v-508q0 -266 -267 -266h-61q-266 0 -266 266v926q0 266 266 266h61q262 0 263 -262v-197h-160v201q0 109 -109 108h-49q-109 0 -108 -108v-942q0 -109 108 -109h53q109 0 109 109v366z" />
    <glyph glyph-name="gdotaccent" unicode="&#x121;" horiz-adv-x="684" 
d="M428 1372v-174h-139v174h139zM223 881v-531q0 -90 90 -90q74 0 144 53v600q-68 57 -144 58q-90 0 -90 -90zM612 1106v-1100q0 -240 -241 -239h-82q-217 0 -217 215v59h145v-53q0 -86 80 -86h80q80 0 80 86v200q-81 -76 -185 -76t-154 60q-50 59 -50 160v567q0 99 50 159
t154 60t185 -80v68h155z" />
    <glyph glyph-name="Gcommaaccent" unicode="&#x122;" horiz-adv-x="737" 
d="M438 -92v-111q0 -57 -9 -88t-42 -71l-37 -48l-45 29l23 39q23 41 26 74h-47v176h131zM508 612h-133v150h293v-508q0 -266 -267 -266h-61q-266 0 -266 266v926q0 266 266 266h61q262 0 263 -262v-197h-160v201q0 109 -109 108h-49q-109 0 -108 -108v-942q0 -109 108 -109
h53q109 0 109 109v366z" />
    <glyph glyph-name="gcommaaccent" unicode="&#x123;" horiz-adv-x="684" 
d="M293 1198v111q0 57 9 88t42 71l37 48l45 -29l-23 -39q-25 -39 -28 -74h49v-176h-131zM223 881v-531q0 -90 90 -90q74 0 144 53v600q-68 57 -144 58q-90 0 -90 -90zM612 1106v-1100q0 -240 -241 -239h-82q-217 0 -217 215v59h145v-53q0 -86 80 -86h80q80 0 80 86v200
q-81 -76 -185 -76t-154 60q-50 59 -50 160v567q0 99 50 159t154 60t185 -80v68h155z" />
    <glyph glyph-name="Hbar" unicode="&#x126;" horiz-adv-x="806" 
d="M270 809h267v272h-267v-272zM8 1075v139h98v220h164v-226h267v226h163v-220h107v-139h-107v-1075h-163v655h-267v-655h-164v1075h-98z" />
    <glyph glyph-name="hbar" unicode="&#x127;" horiz-adv-x="710" 
d="M100 0v1202h-71v121h71v131h156v-131h205v-121h-205v-168q88 84 197 84q188 0 188 -198v-920h-156v887q0 84 -79 84q-72 0 -150 -56v-915h-156z" />
    <glyph glyph-name="Imacron" unicode="&#x12a;" horiz-adv-x="323" 
d="M-37 1655h397v-115h-397v115zM244 1434v-1434h-164v1434h164z" />
    <glyph glyph-name="imacron" unicode="&#x12b;" horiz-adv-x="311" 
d="M-43 1348h397v-136h-397v136zM78 0v1106h155v-1106h-155z" />
    <glyph glyph-name="Ibreve" unicode="&#x12c;" horiz-adv-x="323" 
d="M-25 1673v27h115v-17q0 -57 64 -57h16q63 0 63 57v17h115v-27q0 -154 -170 -153h-33q-170 -1 -170 153zM244 1434v-1434h-164v1434h164z" />
    <glyph glyph-name="ibreve" unicode="&#x12d;" horiz-adv-x="311" 
d="M-27 1362v51h115v-51q0 -63 64 -64h8q63 0 63 64v51h115v-51q0 -170 -170 -170h-25q-170 0 -170 170zM78 0v1106h155v-1106h-155z" />
    <glyph glyph-name="Iogonek" unicode="&#x12e;" horiz-adv-x="323" 
d="M66 -109q0 52 43 109h-29v1434h164v-1434h-23l-16 -29q-20 -35 -21 -59q0 -23 25 -23h47v-98h-82q-109 0 -108 92v8z" />
    <glyph glyph-name="iogonek" unicode="&#x12f;" horiz-adv-x="311" 
d="M74 1219v174h164v-174h-164zM78 0v1106h155v-1106h-20l-16 -29q-20 -35 -21 -59q0 -23 25 -23h47v-98h-82q-109 0 -109 92v8q0 41 41 105l2 4h-22z" />
    <glyph glyph-name="Idotaccent" unicode="&#x130;" horiz-adv-x="323" 
d="M233 1659v-133h-143v133h143zM244 1434v-1434h-164v1434h164z" />
    <glyph glyph-name="dotlessi" unicode="&#x131;" horiz-adv-x="311" 
d="M78 0v1106h155v-1106h-155z" />
    <glyph glyph-name="Kcommaaccent" unicode="&#x136;" horiz-adv-x="708" 
d="M416 -92v-111q0 -57 -9 -88t-42 -71l-37 -48l-45 29l22 39q23 41 27 74h-47v176h131zM242 0h-164v1434h164v-695l282 695h174l-295 -705l287 -729h-180l-268 705v-705z" />
    <glyph glyph-name="kcommaaccent" unicode="&#x137;" horiz-adv-x="643" 
d="M395 -92v-111q0 -57 -9 -88t-42 -71l-37 -48l-45 29l23 39q23 41 26 74h-47v176h131zM227 0h-155v1454h155v-885l242 537h166l-258 -541l250 -565h-170l-230 549v-549z" />
    <glyph glyph-name="Lacute" unicode="&#x139;" horiz-adv-x="555" 
d="M68 1526l86 174h157l-139 -174h-104zM78 1434h164v-1282h270v-152h-434v1434z" />
    <glyph glyph-name="lacute" unicode="&#x13a;" horiz-adv-x="311" 
d="M102 1505l74 215h158l-127 -215h-105zM78 0v1454h155v-1454h-155z" />
    <glyph glyph-name="Lcommaaccent" unicode="&#x13b;" horiz-adv-x="555" 
d="M324 -92v-111q0 -57 -10 -88t-42 -71l-36 -48l-46 29l23 39q23 41 27 74h-47v176h131zM78 1434h164v-1282h270v-152h-434v1434z" />
    <glyph glyph-name="lcommaaccent" unicode="&#x13c;" horiz-adv-x="311" 
d="M223 -92v-111q0 -57 -9 -88t-42 -71l-37 -48l-45 29l23 39q23 41 26 74h-47v176h131zM78 0v1454h155v-1454h-155z" />
    <glyph glyph-name="Lcaron" unicode="&#x13d;" horiz-adv-x="593" 
d="M307 1192v242h127l-53 -242h-74zM117 1434h164v-1282h270v-152h-434v1434z" />
    <glyph glyph-name="lcaron" unicode="&#x13e;" horiz-adv-x="311" 
d="M291 1212v242h127l-53 -242h-74zM78 0v1454h155v-1454h-155z" />
    <glyph glyph-name="Ldot" unicode="&#x13f;" horiz-adv-x="593" 
d="M117 1434h164v-1282h270v-152h-434v1434zM494 807v-174h-132v174h132z" />
    <glyph glyph-name="ldot" unicode="&#x140;" horiz-adv-x="393" 
d="M78 0v1454h155v-1454h-155zM414 815v-174h-123v174h123z" />
    <glyph glyph-name="Lslash" unicode="&#x141;" horiz-adv-x="573" 
d="M96 1434h164v-582l143 76v-144l-143 -75v-557h270v-152h-434v621l-102 -54v144l102 53v670z" />
    <glyph glyph-name="lslash" unicode="&#x142;" horiz-adv-x="339" 
d="M92 0v606l-78 -51v139l78 51v709h156v-602l78 53v-139l-78 -53v-713h-156z" />
    <glyph glyph-name="Nacute" unicode="&#x143;" horiz-adv-x="774" 
d="M332 1526l86 174h157l-139 -174h-104zM233 0h-155v1434h225l238 -1035v1035h155v-1434h-204l-259 1122v-1122z" />
    <glyph glyph-name="nacute" unicode="&#x144;" horiz-adv-x="681" 
d="M287 1198l73 215h158l-127 -215h-104zM72 0v1106h155v-72q88 84 197 84q188 0 188 -198v-920h-155v887q0 84 -80 84q-72 0 -150 -56v-915h-155z" />
    <glyph glyph-name="Ncommaaccent" unicode="&#x145;" horiz-adv-x="774" 
d="M455 -92v-111q1 -57 -9 -88t-43 -71l-36 -48l-45 29l22 39q23 41 27 74h-47v176h131zM233 0h-155v1434h225l238 -1035v1035h155v-1434h-204l-259 1122v-1122z" />
    <glyph glyph-name="ncommaaccent" unicode="&#x146;" horiz-adv-x="681" 
d="M410 -92v-111q0 -57 -10 -88t-42 -71l-36 -48l-46 29l23 39q23 41 27 74h-47v176h131zM72 0v1106h155v-72q88 84 197 84q188 0 188 -198v-920h-155v887q0 84 -80 84q-72 0 -150 -56v-915h-155z" />
    <glyph glyph-name="Ncaron" unicode="&#x147;" horiz-adv-x="774" 
d="M596 1716l-139 -190h-140l-139 190h109l100 -90l100 90h109zM233 0h-155v1434h225l238 -1035v1035h155v-1434h-204l-259 1122v-1122z" />
    <glyph glyph-name="ncaron" unicode="&#x148;" horiz-adv-x="681" 
d="M543 1413l-131 -215h-140l-131 215h109l92 -108l92 108h109zM72 0v1106h155v-72q88 84 197 84q188 0 188 -198v-920h-155v887q0 84 -80 84q-72 0 -150 -56v-915h-155z" />
    <glyph glyph-name="Omacron" unicode="&#x14c;" horiz-adv-x="741" 
d="M172 1655h397v-115h-397v115zM504 1188q0 109 -109 108h-49q-109 0 -108 -108v-942q0 -109 108 -109h49q109 0 109 109v942zM668 254q0 -266 -267 -266h-61q-266 0 -266 266v926q0 266 266 266h61q266 0 267 -266v-926z" />
    <glyph glyph-name="omacron" unicode="&#x14d;" horiz-adv-x="675" 
d="M139 1348h398v-136h-398v136zM356 973h-37q-98 0 -98 -99v-643q0 -98 98 -98h37q98 0 99 98v643q-1 99 -99 99zM360 -12h-45q-250 0 -249 250v630q0 250 249 250h45q250 0 250 -250v-630q0 -250 -250 -250z" />
    <glyph glyph-name="Obreve" unicode="&#x14e;" horiz-adv-x="741" 
d="M184 1673v27h115v-17q0 -57 63 -57h17q63 0 63 57v17h115v-27q0 -154 -170 -153h-33q-170 -1 -170 153zM504 1188q0 109 -109 108h-49q-109 0 -108 -108v-942q0 -109 108 -109h49q109 0 109 109v942zM668 254q0 -266 -267 -266h-61q-266 0 -266 266v926q0 266 266 266h61
q266 0 267 -266v-926z" />
    <glyph glyph-name="obreve" unicode="&#x14f;" horiz-adv-x="675" 
d="M156 1362v51h114v-51q0 -63 64 -64h8q63 0 64 64v51h114v-51q0 -170 -170 -170h-24q-170 0 -170 170zM356 973h-37q-98 0 -98 -99v-643q0 -98 98 -98h37q98 0 99 98v643q-1 99 -99 99zM360 -12h-45q-250 0 -249 250v630q0 250 249 250h45q250 0 250 -250v-630
q0 -250 -250 -250z" />
    <glyph glyph-name="Ohungarumlaut" unicode="&#x150;" horiz-adv-x="741" 
d="M414 1526l73 174h148l-137 -174h-84zM244 1526l73 174h148l-137 -174h-84zM504 1188q0 109 -109 108h-49q-109 0 -108 -108v-942q0 -109 108 -109h49q109 0 109 109v942zM668 254q0 -266 -267 -266h-61q-266 0 -266 266v926q0 266 266 266h61q266 0 267 -266v-926z" />
    <glyph glyph-name="ohungarumlaut" unicode="&#x151;" horiz-adv-x="675" 
d="M381 1198l61 215h148l-125 -215h-84zM211 1198l61 215h148l-125 -215h-84zM356 973h-37q-98 0 -98 -99v-643q0 -98 98 -98h37q98 0 99 98v643q-1 99 -99 99zM360 -12h-45q-250 0 -249 250v630q0 250 249 250h45q250 0 250 -250v-630q0 -250 -250 -250z" />
    <glyph glyph-name="OE" unicode="&#x152;" horiz-adv-x="1009" 
d="M498 150v1134h-99q-162 0 -161 -166v-803q0 -166 161 -165h99zM391 1434h557v-152h-286v-475h276v-150h-276v-505h290v-152h-561q-317 0 -317 317v799q0 318 317 318z" />
    <glyph glyph-name="oe" unicode="&#x153;" horiz-adv-x="1050" 
d="M610 874v-231h221v231q0 98 -98 99h-24q-99 -1 -99 -99zM360 971h-45q-94 0 -94 -94v-648q0 -94 94 -94h45q94 0 95 94v648q-1 94 -95 94zM705 1118h32q250 0 250 -250v-372h-377v-265q0 -98 99 -98h28q98 0 99 98v127h151v-120q0 -250 -250 -250h-32q-121 0 -173 65
q-51 -66 -172 -65h-45q-250 0 -249 250v630q0 250 249 250h45q121 0 172 -67q52 67 173 67z" />
    <glyph glyph-name="Racute" unicode="&#x154;" horiz-adv-x="724" 
d="M293 1526l86 174h158l-140 -174h-104zM485 1176q0 109 -108 108h-135v-536h123q121 0 120 120v308zM651 483v-483h-164v477q0 125 -125 125h-120v-602h-164v1434h305q266 0 266 -267v-266q0 -174 -127 -225q129 -35 129 -193z" />
    <glyph glyph-name="racute" unicode="&#x155;" horiz-adv-x="434" 
d="M182 1198l74 215h158l-127 -215h-105zM72 0v1106h155v-117q37 67 77 97t102 30v-176q-111 -8 -179 -70v-870h-155z" />
    <glyph glyph-name="Rcommaaccent" unicode="&#x156;" horiz-adv-x="724" 
d="M416 -92v-111q0 -57 -9 -88t-42 -71l-37 -48l-45 29l22 39q23 41 27 74h-47v176h131zM485 1176q0 109 -108 108h-135v-536h123q121 0 120 120v308zM651 483v-483h-164v477q0 125 -125 125h-120v-602h-164v1434h305q266 0 266 -267v-266q0 -174 -127 -225
q129 -35 129 -193z" />
    <glyph glyph-name="rcommaaccent" unicode="&#x157;" horiz-adv-x="434" 
d="M215 -92v-111q0 -57 -9 -88t-42 -71l-37 -48l-45 29l22 39q23 41 27 74h-47v176h131zM72 0v1106h155v-117q37 67 77 97t102 30v-176q-111 -8 -179 -70v-870h-155z" />
    <glyph glyph-name="Rcaron" unicode="&#x158;" horiz-adv-x="724" 
d="M557 1716l-139 -190h-139l-140 190h109l100 -90l101 90h108zM485 1176q0 109 -108 108h-135v-536h123q121 0 120 120v308zM651 483v-483h-164v477q0 125 -125 125h-120v-602h-164v1434h305q266 0 266 -267v-266q0 -174 -127 -225q129 -35 129 -193z" />
    <glyph glyph-name="rcaron" unicode="&#x159;" horiz-adv-x="434" 
d="M438 1413l-131 -215h-139l-131 215h108l93 -108l92 108h108zM72 0v1106h155v-117q37 67 77 97t102 30v-176q-111 -8 -179 -70v-870h-155z" />
    <glyph glyph-name="Sacute" unicode="&#x15a;" horiz-adv-x="712" 
d="M303 1526l86 174h158l-139 -174h-105zM645 463v-209q0 -266 -266 -266h-45q-262 0 -262 262v301h159v-307q0 -109 109 -109h33q109 0 108 109v215q0 51 -16 80t-55 57l-201 145q-78 55 -108 115t-29 152v172q0 266 266 266h41q262 0 262 -262v-258h-160v264
q0 109 -108 108h-29q-109 0 -108 -108v-180q0 -51 17 -80t56 -58l199 -143q78 -57 108 -115t29 -151z" />
    <glyph glyph-name="sacute" unicode="&#x15b;" horiz-adv-x="651" 
d="M270 1198l74 215h158l-127 -215h-105zM434 717v166q0 94 -94 94h-27q-94 0 -94 -94v-97q0 -70 57 -104l185 -115q69 -45 99 -92t30 -127v-110q0 -250 -250 -250h-31q-246 0 -246 245v164h154v-174q0 -94 94 -94h31q94 0 94 94v105q0 68 -57 104l-184 115q-70 45 -100 92
t-29 127v102q0 250 249 250h27q246 0 246 -246v-155h-154z" />
    <glyph glyph-name="Scedilla" unicode="&#x15e;" horiz-adv-x="712" 
d="M645 463v-209q0 -246 -223 -264l-37 -183h-141l78 181q-250 6 -250 262v301h159v-307q0 -109 109 -109h33q109 0 108 109v215q0 51 -16 80t-55 57l-201 145q-78 55 -108 115t-29 152v172q0 266 266 266h41q262 0 262 -262v-258h-160v264q0 109 -108 108h-29
q-109 0 -108 -108v-180q0 -51 17 -80t56 -58l199 -143q78 -57 108 -115t29 -151z" />
    <glyph glyph-name="scedilla" unicode="&#x15f;" horiz-adv-x="651" 
d="M434 717v166q0 94 -94 94h-27q-94 0 -94 -94v-97q0 -70 57 -104l185 -115q69 -45 99 -92t30 -127v-110q0 -229 -209 -248l-37 -183h-141l78 183q-217 12 -218 243v164h154v-174q0 -94 94 -94h31q94 0 94 94v105q0 68 -57 104l-184 115q-70 45 -100 92t-29 127v102
q0 250 249 250h27q246 0 246 -246v-155h-154z" />
    <glyph glyph-name="Scaron" unicode="&#x160;" horiz-adv-x="712" 
d="M567 1716l-139 -190h-139l-139 190h108l100 -90l101 90h108zM645 463v-209q0 -266 -266 -266h-45q-262 0 -262 262v301h159v-307q0 -109 109 -109h33q109 0 108 109v215q0 51 -16 80t-55 57l-201 145q-78 55 -108 115t-29 152v172q0 266 266 266h41q262 0 262 -262v-258
h-160v264q0 109 -108 108h-29q-109 0 -108 -108v-180q0 -51 17 -80t56 -58l199 -143q78 -57 108 -115t29 -151z" />
    <glyph glyph-name="scaron" unicode="&#x161;" horiz-adv-x="651" 
d="M526 1413l-131 -215h-139l-131 215h108l93 -108l92 108h108zM434 717v166q0 94 -94 94h-27q-94 0 -94 -94v-97q0 -70 57 -104l185 -115q69 -45 99 -92t30 -127v-110q0 -250 -250 -250h-31q-246 0 -246 245v164h154v-174q0 -94 94 -94h31q94 0 94 94v105q0 68 -57 104
l-184 115q-70 45 -100 92t-29 127v102q0 250 249 250h27q246 0 246 -246v-155h-154z" />
    <glyph glyph-name="Tcommaaccent" unicode="&#x162;" horiz-adv-x="634" 
d="M385 -92v-111q0 -57 -9 -88t-42 -71l-37 -48l-45 29l22 39q23 41 27 74h-47v176h131zM399 0h-163v1282h-216v152h594v-152h-215v-1282z" />
    <glyph glyph-name="Tcommaaccent" unicode="&#x21a;" horiz-adv-x="634" 
d="M385 -92v-111q0 -57 -9 -88t-42 -71l-37 -48l-45 29l22 39q23 41 27 74h-47v176h131zM399 0h-163v1282h-216v152h594v-152h-215v-1282z" />
    <glyph glyph-name="tcommaaccent" unicode="&#x163;" horiz-adv-x="403" 
d="M262 -92v-111q0 -57 -9 -88t-42 -71l-37 -48l-45 29l23 39q23 41 26 74h-47v176h131zM268 963v-963h-155v963h-74v143h74v184h155v-184h113v-143h-113z" />
    <glyph glyph-name="tcommaaccent" unicode="&#x21b;" horiz-adv-x="403" 
d="M262 -92v-111q0 -57 -9 -88t-42 -71l-37 -48l-45 29l23 39q23 41 26 74h-47v176h131zM268 963v-963h-155v963h-74v143h74v184h155v-184h113v-143h-113z" />
    <glyph glyph-name="Tcaron" unicode="&#x164;" horiz-adv-x="634" 
d="M526 1716l-139 -190h-139l-139 190h108l100 -90l101 90h108zM399 0h-163v1282h-216v152h594v-152h-215v-1282z" />
    <glyph glyph-name="tcaron" unicode="&#x165;" horiz-adv-x="403" 
d="M326 1212v242h127l-54 -242h-73zM268 963v-963h-155v963h-74v143h74v184h155v-184h113v-143h-113z" />
    <glyph glyph-name="Umacron" unicode="&#x16a;" horiz-adv-x="735" 
d="M168 1655h397v-115h-397v115zM659 1434v-1180q0 -266 -266 -266h-51q-266 0 -266 266v1180h164v-1188q0 -109 108 -109h39q109 0 109 109v1188h163z" />
    <glyph glyph-name="umacron" unicode="&#x16b;" horiz-adv-x="681" 
d="M141 1348h398v-136h-398v136zM610 1106v-1106h-155v72q-88 -84 -197 -84q-188 0 -188 198v920h155v-887q0 -84 80 -84q72 0 150 55v916h155z" />
    <glyph glyph-name="Ubreve" unicode="&#x16c;" horiz-adv-x="735" 
d="M180 1663v27h115v-17q0 -57 63 -57h17q63 0 63 57v17h115v-27q0 -154 -170 -154h-33q-170 0 -170 154zM659 1434v-1180q0 -266 -266 -266h-51q-266 0 -266 266v1180h164v-1188q0 -109 108 -109h39q109 0 109 109v1188h163z" />
    <glyph glyph-name="ubreve" unicode="&#x16d;" horiz-adv-x="681" 
d="M158 1362v51h114v-51q0 -63 64 -64h8q63 0 64 64v51h114v-51q0 -170 -170 -170h-24q-170 0 -170 170zM610 1106v-1106h-155v72q-88 -84 -197 -84q-188 0 -188 198v920h155v-887q0 -84 80 -84q72 0 150 55v916h155z" />
    <glyph glyph-name="Uring" unicode="&#x16e;" horiz-adv-x="735" 
d="M510 1626v6q0 61 -82 62h-123q-82 0 -82 -62v-6q0 -61 82 -61h123q82 0 82 61zM561 1634v-10q0 -104 -125 -104h-139q-125 0 -125 104v10q0 104 125 105h139q125 -1 125 -105zM659 1434v-1180q0 -266 -266 -266h-51q-266 0 -266 266v1180h164v-1188q0 -109 108 -109h39
q109 0 109 109v1188h163z" />
    <glyph glyph-name="uring" unicode="&#x16f;" horiz-adv-x="681" 
d="M459 1300v11q0 63 -86 63h-66q-86 0 -86 -63v-11q0 -63 88 -63h64q86 0 86 63zM510 1311v-11q0 -109 -129 -108h-82q-129 0 -129 108v11q0 109 129 108h82q129 1 129 -108zM610 1106v-1106h-155v72q-88 -84 -197 -84q-188 0 -188 198v920h155v-887q0 -84 80 -84
q72 0 150 55v916h155z" />
    <glyph glyph-name="Uhungarumlaut" unicode="&#x170;" horiz-adv-x="735" 
d="M410 1526l73 174h148l-137 -174h-84zM240 1526l73 174h148l-137 -174h-84zM659 1434v-1180q0 -266 -266 -266h-51q-266 0 -266 266v1180h164v-1188q0 -109 108 -109h39q109 0 109 109v1188h163z" />
    <glyph glyph-name="uhungarumlaut" unicode="&#x171;" horiz-adv-x="681" 
d="M213 1198l61 215h148l-125 -215h-84zM383 1198l61 215h148l-125 -215h-84zM610 1106v-1106h-155v72q-88 -84 -197 -84q-188 0 -188 198v920h155v-887q0 -84 80 -84q72 0 150 55v916h155z" />
    <glyph glyph-name="Uogonek" unicode="&#x172;" horiz-adv-x="735" 
d="M659 1434v-1180q0 -252 -237 -264l-10 -19q-20 -35 -21 -59q0 -23 25 -23h47v-98h-82q-109 0 -109 92v8q0 41 35 99q-231 14 -231 264v1180h164v-1188q0 -109 108 -109h39q109 0 109 109v1188h163z" />
    <glyph glyph-name="uogonek" unicode="&#x173;" horiz-adv-x="681" 
d="M610 1106v-1106h-20l-17 -29q-20 -35 -20 -59t25 -23h47v-98h-82q-109 0 -109 92v8q0 41 41 105l2 4h-22v72q-88 -84 -197 -84q-188 0 -188 198v920h155v-887q0 -84 80 -84q72 0 150 55v916h155z" />
    <glyph glyph-name="Wcircumflex" unicode="&#x174;" horiz-adv-x="1110" 
d="M625 1716l139 -190h-109l-100 90l-100 -90h-109l139 190h140zM639 1434l131 -1221l127 1221h160l-174 -1434h-213l-117 1028l-113 -1028h-213l-174 1434h164l123 -1221l135 1221h164z" />
    <glyph glyph-name="wcircumflex" unicode="&#x175;" horiz-adv-x="952" 
d="M551 1413l131 -215h-109l-92 109l-92 -109h-108l131 215h139zM553 1106l117 -809l94 809h149l-168 -1106h-159l-107 778l-112 -778h-160l-168 1106h154l96 -809l114 809h150z" />
    <glyph glyph-name="Ycircumflex" unicode="&#x176;" horiz-adv-x="661" 
d="M401 1716l140 -190h-109l-100 90l-101 -90h-108l139 190h139zM414 0h-164v489l-232 945h168l146 -703l151 703h162l-231 -932v-502z" />
    <glyph glyph-name="ycircumflex" unicode="&#x177;" horiz-adv-x="647" 
d="M397 1413l131 -215h-108l-92 109l-92 -109h-109l131 215h139zM350 -225h-153l51 239l-215 1092h157l136 -793l135 793h153z" />
    <glyph glyph-name="Ydieresis" unicode="&#x178;" horiz-adv-x="661" 
d="M381 1526v149h139v-149h-139zM283 1675v-149h-140v149h140zM414 0h-164v489l-232 945h168l146 -703l151 703h162l-231 -932v-502z" />
    <glyph glyph-name="Zacute" unicode="&#x179;" horiz-adv-x="583" 
d="M238 1526l86 174h157l-139 -174h-104zM55 1284v150h486v-150l-332 -1134h332v-150h-496v150l332 1134h-322z" />
    <glyph glyph-name="zacute" unicode="&#x17a;" horiz-adv-x="532" 
d="M221 1198l74 215h158l-127 -215h-105zM47 963v143h449v-143l-303 -820h303v-143h-459v143l299 820h-289z" />
    <glyph glyph-name="Zdotaccent" unicode="&#x17b;" horiz-adv-x="583" 
d="M365 1659v-133h-144v133h144zM55 1284v150h486v-150l-332 -1134h332v-150h-496v150l332 1134h-322z" />
    <glyph glyph-name="zdotaccent" unicode="&#x17c;" horiz-adv-x="532" 
d="M346 1372v-174h-139v174h139zM47 963v143h449v-143l-303 -820h303v-143h-459v143l299 820h-289z" />
    <glyph glyph-name="Zcaron" unicode="&#x17d;" horiz-adv-x="583" 
d="M502 1716l-140 -190h-139l-139 190h109l100 -90l100 90h109zM55 1284v150h486v-150l-332 -1134h332v-150h-496v150l332 1134h-322z" />
    <glyph glyph-name="zcaron" unicode="&#x17e;" horiz-adv-x="532" 
d="M477 1413l-131 -215h-139l-131 215h108l92 -108l93 108h108zM47 963v143h449v-143l-303 -820h303v-143h-459v143l299 820h-289z" />
    <glyph glyph-name="Aringacute" unicode="&#x1fa;" horiz-adv-x="720" 
d="M313 1604l86 174h158l-139 -174h-105zM504 1446v14q0 57 -80 58h-127q-80 0 -80 -58v-14q0 -57 80 -57h127q80 0 80 57zM356 1190l-110 -803h223zM555 1458v-10q0 -78 -78 -100l209 -1348h-162l-35 240h-264l-32 -240h-158l207 1348q-76 23 -76 100v10q0 104 125 105h139
q125 -1 125 -105z" />
    <glyph glyph-name="aringacute" unicode="&#x1fb;" horiz-adv-x="653" 
d="M279 1489l73 215h158l-127 -215h-104zM449 1300v11q0 63 -87 63h-65q-86 0 -86 -63v-11q0 -63 88 -63h63q87 0 87 63zM500 1311v-11q0 -109 -129 -108h-82q-129 0 -129 108v11q0 109 129 108h82q129 1 129 -108zM289 135q66 0 141 51v361l-141 -49q-43 -16 -59 -42
t-17 -73v-168q0 -80 76 -80zM57 182v203q0 99 37 151t127 82l209 72v184q0 100 -98 101h-13q-98 0 -98 -101v-137h-151v131q0 250 249 250h17q250 0 250 -250v-868h-156v70q-86 -82 -190 -82q-183 -1 -183 194z" />
    <glyph glyph-name="AEacute" unicode="&#x1fc;" horiz-adv-x="923" 
d="M457 1526l86 174h157l-139 -174h-104zM412 387v913l-172 -913h172zM866 0h-454v240h-199l-45 -240h-158l293 1434h559v-152h-287v-475h277v-150h-277v-505h291v-152z" />
    <glyph glyph-name="aeacute" unicode="&#x1fd;" horiz-adv-x="1056" 
d="M494 1198l73 215h158l-127 -215h-104zM616 874v-231h222v231q0 98 -99 99h-24q-99 -1 -99 -99zM244 395v-180q0 -80 75 -80q66 0 142 51v373l-142 -49q-43 -14 -59 -40t-16 -75zM711 1118h32q250 0 250 -250v-372h-377v-265q0 -98 99 -98h28q98 0 99 98v144h151v-137
q0 -250 -250 -250h-32q-152 0 -213 94q-80 -54 -125 -74t-103 -20q-182 0 -182 194v215q0 99 37 151t127 83l209 71v172q0 100 -99 101h-12q-98 0 -98 -101v-137h-152v131q0 250 250 250h17q115 0 172 -67q57 67 172 67z" />
    <glyph glyph-name="Oslashacute" unicode="&#x1fe;" horiz-adv-x="741" 
d="M315 1526l86 174h158l-139 -174h-105zM346 1296q-109 0 -108 -108l-2 -285l-3 -516l242 885q-29 25 -80 24h-49zM346 137h49q109 0 109 109l2 221l2 580l-242 -885q25 -25 80 -25zM668 254q0 -266 -267 -266h-61q-266 0 -266 266v926q0 266 266 266h61q266 0 267 -266
v-926z" />
    <glyph glyph-name="oslashacute" unicode="&#x1ff;" horiz-adv-x="675" 
d="M283 1198l73 215h158l-127 -215h-104zM319 973q-98 0 -98 -99v-65l-4 -533l201 682q-23 14 -62 15h-37zM455 231v76l4 522l-201 -682q20 -14 61 -14h37q99 0 99 98zM360 -12h-45q-250 0 -249 250v630q0 250 249 250h45q250 0 250 -250v-630q0 -250 -250 -250z" />
    <glyph glyph-name="Scommaaccent" unicode="&#x218;" horiz-adv-x="712" 
d="M426 -92v-111q0 -57 -9 -88t-42 -71l-37 -48l-45 29l22 39q23 41 27 74h-47v176h131zM645 463v-209q0 -266 -266 -266h-45q-262 0 -262 262v301h159v-307q0 -109 109 -109h33q109 0 108 109v215q0 51 -16 80t-55 57l-201 145q-78 55 -108 115t-29 152v172q0 266 266 266
h41q262 0 262 -262v-258h-160v264q0 109 -108 108h-29q-109 0 -108 -108v-180q0 -51 17 -80t56 -58l199 -143q78 -57 108 -115t29 -151z" />
    <glyph glyph-name="scommaaccent" unicode="&#x219;" horiz-adv-x="651" 
d="M393 -92v-111q0 -57 -9 -88t-42 -71l-37 -48l-45 29l23 39q23 41 26 74h-47v176h131zM434 717v166q0 94 -94 94h-27q-94 0 -94 -94v-97q0 -70 57 -104l185 -115q69 -45 99 -92t30 -127v-110q0 -250 -250 -250h-31q-246 0 -246 245v164h154v-174q0 -94 94 -94h31
q94 0 94 94v105q0 68 -57 104l-184 115q-70 45 -100 92t-29 127v102q0 250 249 250h27q246 0 246 -246v-155h-154z" />
    <glyph glyph-name="schwa" unicode="&#x259;" horiz-adv-x="661" 
d="M342 133q98 0 98 98v232h-221v-232q0 -98 98 -98h25zM63 238v372h377v264q0 98 -98 99h-29q-98 0 -98 -99v-126h-152v120q0 250 250 250h33q250 0 250 -250v-630q0 -250 -250 -250h-33q-250 0 -250 250z" />
    <glyph glyph-name="circumflex" unicode="&#x2c6;" 
d="M582 1413l131 -215h-109l-92 109l-92 -109h-109l131 215h140z" />
    <glyph glyph-name="caron" unicode="&#x2c7;" 
d="M713 1413l-131 -215h-140l-131 215h109l92 -108l92 108h109z" />
    <glyph glyph-name="breve" unicode="&#x2d8;" 
d="M330 1362v51h114v-51q0 -63 64 -64h8q63 0 64 64v51h114v-51q0 -170 -170 -170h-24q-170 0 -170 170z" />
    <glyph glyph-name="dotaccent" unicode="&#x2d9;" 
d="M582 1372v-174h-140v174h140z" />
    <glyph glyph-name="ring" unicode="&#x2da;" 
d="M631 1300v11q0 63 -86 63h-66q-86 0 -86 -63v-11q0 -63 88 -63h64q86 0 86 63zM682 1311v-11q0 -109 -129 -108h-82q-129 0 -129 108v11q0 109 129 108h82q129 1 129 -108z" />
    <glyph glyph-name="ogonek" unicode="&#x2db;" 
d="M580 -88q0 -24 24 -23h47v-98h-82q-109 0 -108 92v8q0 41 41 105l20 31h111l-33 -56q-20 -35 -20 -59z" />
    <glyph glyph-name="tilde" unicode="&#x2dc;" 
d="M397 1413h4q53 0 103 -37l49 -37q33 -25 43 -24h2q18 0 18 24v74h105v-119q0 -96 -94 -96h-4q-53 0 -103 37l-49 37q-35 25 -43 24h-2q-18 0 -18 -24v-74h-105v119q0 96 94 96z" />
    <glyph glyph-name="hungarumlaut" unicode="&#x2dd;" 
d="M504 1198l61 215h148l-125 -215h-84zM334 1198l61 215h148l-125 -215h-84z" />
    <glyph glyph-name="commaaccent" unicode="&#x326;" 
d="M582 -92v-111q0 -57 -10 -88t-42 -71l-36 -48l-45 29l22 39q23 41 27 74h-47v176h131z" />
    <glyph glyph-name="Wgrave" unicode="&#x1e80;" horiz-adv-x="1110" 
d="M524 1700l86 -174h-104l-139 174h157zM639 1434l131 -1221l127 1221h160l-174 -1434h-213l-117 1028l-113 -1028h-213l-174 1434h164l123 -1221l135 1221h164z" />
    <glyph glyph-name="wgrave" unicode="&#x1e81;" horiz-adv-x="952" 
d="M463 1413l74 -215h-105l-127 215h158zM553 1106l117 -809l94 809h149l-168 -1106h-159l-107 778l-112 -778h-160l-168 1106h154l96 -809l114 809h150z" />
    <glyph glyph-name="Wacute" unicode="&#x1e82;" horiz-adv-x="1110" 
d="M500 1526l86 174h157l-139 -174h-104zM670 0l-117 1028l-113 -1028h-213l-174 1434h164l123 -1221l135 1221h164l131 -1221l127 1221h160l-174 -1434h-213z" />
    <glyph glyph-name="wacute" unicode="&#x1e83;" horiz-adv-x="952" 
d="M426 1198l74 215h157l-127 -215h-104zM586 0l-107 778l-112 -778h-160l-168 1106h154l96 -809l114 809h150l117 -809l94 809h149l-168 -1106h-159z" />
    <glyph glyph-name="Wdieresis" unicode="&#x1e84;" horiz-adv-x="1110" 
d="M506 1675v-149h-139v149h139zM604 1526v149h139v-149h-139zM639 1434l131 -1221l127 1221h160l-174 -1434h-213l-117 1028l-113 -1028h-213l-174 1434h164l123 -1221l135 1221h164z" />
    <glyph glyph-name="wdieresis" unicode="&#x1e85;" horiz-adv-x="952" 
d="M432 1389v-191h-135v191h135zM530 1198v191h136v-191h-136zM553 1106l117 -809l94 809h149l-168 -1106h-159l-107 778l-112 -778h-160l-168 1106h154l96 -809l114 809h150z" />
    <glyph glyph-name="Ygrave" unicode="&#x1ef2;" horiz-adv-x="661" 
d="M301 1700l86 -174h-104l-140 174h158zM414 0h-164v489l-232 945h168l146 -703l151 703h162l-231 -932v-502z" />
    <glyph glyph-name="ygrave" unicode="&#x1ef3;" horiz-adv-x="647" 
d="M309 1413l74 -215h-104l-127 215h157zM350 -225h-153l51 239l-215 1092h157l136 -793l135 793h153z" />
    <glyph glyph-name="enspace" unicode="&#x2002;" 
 />
    <glyph glyph-name="emspace" unicode="&#x2003;" horiz-adv-x="2048" 
 />
    <glyph glyph-name="threeperemspace" unicode="&#x2004;" horiz-adv-x="681" 
 />
    <glyph glyph-name="fourperemspace" unicode="&#x2005;" horiz-adv-x="512" 
 />
    <glyph glyph-name="thinspace" unicode="&#x2009;" horiz-adv-x="272" 
 />
    <glyph glyph-name="hairspace" unicode="&#x200a;" horiz-adv-x="153" 
 />
    <glyph glyph-name="endash" unicode="&#x2013;" horiz-adv-x="749" 
d="M33 643h684v-139h-684v139z" />
    <glyph glyph-name="emdash" unicode="&#x2014;" horiz-adv-x="1171" 
d="M33 643h1073v-139h-1073v139z" />
    <glyph glyph-name="quoteleft" unicode="&#x2018;" horiz-adv-x="282" 
d="M61 1001v158q0 72 11 111q10 39 43 100l43 76l65 -19l-24 -61q-29 -70 -35 -127h57v-238h-160z" />
    <glyph glyph-name="quoteright" unicode="&#x2019;" horiz-adv-x="282" 
d="M221 1434v-158q0 -72 -10 -111t-43 -100l-43 -76l-66 19l25 61q29 70 35 127h-58v238h160z" />
    <glyph glyph-name="quotesinglbase" unicode="&#x201a;" horiz-adv-x="282" 
d="M221 238v-158q0 -72 -10 -111t-43 -100l-43 -76l-66 19l25 61q29 70 35 127h-58v238h160z" />
    <glyph glyph-name="quotedblleft" unicode="&#x201c;" horiz-adv-x="536" 
d="M61 1001v158q0 72 11 111q10 39 43 100l43 76l65 -19l-24 -61q-29 -70 -35 -127h57v-238h-160zM315 1001v158q0 72 11 111q10 39 43 100l43 76l65 -19l-24 -61q-29 -70 -35 -127h57v-238h-160z" />
    <glyph glyph-name="quotedblright" unicode="&#x201d;" horiz-adv-x="536" 
d="M475 1434v-158q0 -72 -10 -111t-43 -100l-43 -76l-66 19l25 61q29 70 35 127h-58v238h160zM221 1434v-158q0 -72 -10 -111t-43 -100l-43 -76l-66 19l25 61q29 70 35 127h-58v238h160z" />
    <glyph glyph-name="quotedblbase" unicode="&#x201e;" horiz-adv-x="536" 
d="M475 238v-158q0 -72 -10 -111t-43 -100l-43 -76l-66 19l25 61q29 70 35 127h-58v238h160zM221 238v-158q0 -72 -10 -111t-43 -100l-43 -76l-66 19l25 61q29 70 35 127h-58v238h160z" />
    <glyph glyph-name="dagger" unicode="&#x2020;" horiz-adv-x="483" 
d="M303 713h-123l4 440l-164 -6v123l164 -6l-4 174h123l-6 -174l166 6v-123l-166 6z" />
    <glyph glyph-name="daggerdbl" unicode="&#x2021;" horiz-adv-x="483" 
d="M182 926l2 227l-164 -6v123l164 -6l-4 174h123l-6 -174l166 6v-123l-166 6l4 -227l-4 -226l166 7v-123l-166 6l6 -174h-123l4 174l-164 -6v123l164 -7z" />
    <glyph glyph-name="bullet" unicode="&#x2022;" horiz-adv-x="487" 
d="M375 803v-164q0 -94 -107 -94h-51q-104 0 -104 94v164q0 94 104 94h51q107 0 107 -94z" />
    <glyph glyph-name="ellipsis" unicode="&#x2026;" horiz-adv-x="847" 
d="M786 238v-238h-159v238h159zM504 238v-238h-160v238h160zM221 238v-238h-160v238h160z" />
    <glyph glyph-name="guilsinglleft" unicode="&#x2039;" horiz-adv-x="325" 
d="M10 573l146 318h141l-127 -318l127 -317h-135z" />
    <glyph glyph-name="guilsinglright" unicode="&#x203a;" horiz-adv-x="325" 
d="M170 891l145 -318l-151 -317h-135l127 317l-127 318h141z" />
    <glyph glyph-name="Euro" unicode="&#x20ac;" horiz-adv-x="739" 
d="M45 887h76v293q0 266 266 266h37q262 0 262 -262v-176h-160v180q0 109 -104 108h-33q-104 0 -104 -108v-301h301v-113h-301v-96h301v-113h-301v-319q0 -109 104 -109h37q104 0 104 109v194h160v-186q0 -266 -266 -266h-37q-266 0 -266 266v311h-76v113h76v96h-76v113z
" />
    <glyph glyph-name="published" unicode="&#x2117;" horiz-adv-x="1015" 
d="M596 1047q0 70 -72 69h-80v-409h80q72 0 72 69v271zM444 580v-387h-129v1050h213q197 0 197 -186v-291q0 -186 -197 -186h-84zM881 324v786q0 152 -65 220t-202 67h-213q-137 0 -201 -68t-65 -219v-786q0 -152 65 -220t201 -67h213q137 -1 202 67t65 220zM934 1110v-786
q0 -178 -77 -257t-243 -79h-213q-167 0 -243 79t-76 257v786q0 178 77 257t242 79h213q166 0 243 -79t77 -257z" />
    <glyph glyph-name="servicemark" unicode="&#x2120;" horiz-adv-x="946" 
d="M162 1040v-104q0 -27 12 -38t41 -11h6q29 0 41 11t12 38v61q0 39 -32 60l-107 71q-66 47 -65 117v70q0 125 129 125h41q127 0 127 -125v-96h-93v88q0 49 -51 49h-8q-51 0 -51 -49v-43q0 -35 35 -60l104 -69q66 -43 66 -117v-90q0 -125 -129 -125h-41q-129 0 -129 125v112
h92zM860 1434v-625h-86v457l-84 -457h-88l-82 455v-455h-86v625h133l82 -473l84 473h127z" />
    <glyph glyph-name="trademark" unicode="&#x2122;" horiz-adv-x="897" 
d="M229 809h-98v534h-106v91h311v-91h-107v-534zM471 809h-86v625h133l82 -473l84 473h127v-625h-86v457l-84 -457h-88l-82 455v-455z" />
    <glyph glyph-name="minus" unicode="&#x2212;" horiz-adv-x="643" 
d="M20 803h603v-150h-603v150z" />
    <glyph glyph-name="f_f" unicode="&#xfb00;" horiz-adv-x="802" 
d="M508 1106v125q0 223 223 223h64v-143h-58q-74 0 -73 -74v-131h124v-143h-124v-963h-156v963h-64v143h64zM106 1106v125q0 223 224 223h63v-143h-57q-74 0 -74 -74v-131h125v-143h-125v-963h-156v963h-63v143h63z" />
    <glyph glyph-name="fi" unicode="&#xfb01;" horiz-adv-x="712" 
d="M479 0v1106h156v-1106h-156zM475 1219v174h164v-174h-164zM106 1106v125q0 223 224 223h63v-143h-57q-74 0 -74 -74v-131h125v-143h-125v-963h-156v963h-63v143h63z" />
    <glyph glyph-name="fl" unicode="&#xfb02;" horiz-adv-x="712" 
d="M479 0v1454h156v-1454h-156zM106 1106v125q0 223 224 223h63v-143h-57q-74 0 -74 -74v-131h125v-143h-125v-963h-156v963h-63v143h63z" />
    <glyph glyph-name="f_f_i" unicode="&#xfb03;" horiz-adv-x="1114" 
d="M881 0v1106h155v-1106h-155zM877 1219v174h163v-174h-163zM508 1106v125q0 223 223 223h64v-143h-58q-74 0 -73 -74v-131h124v-143h-124v-963h-156v963h-64v143h64zM106 1106v125q0 223 224 223h63v-143h-57q-74 0 -74 -74v-131h125v-143h-125v-963h-156v963h-63v143h63z
" />
    <glyph glyph-name="f_f_l" unicode="&#xfb04;" horiz-adv-x="1114" 
d="M881 0v1454h155v-1454h-155zM508 1106v125q0 223 223 223h64v-143h-58q-74 0 -73 -74v-131h124v-143h-124v-963h-156v963h-64v143h64zM106 1106v125q0 223 224 223h63v-143h-57q-74 0 -74 -74v-131h125v-143h-125v-963h-156v963h-63v143h63z" />
    <glyph glyph-name="Q.alt" horiz-adv-x="741" 
d="M504 1188q0 109 -109 108h-49q-109 0 -108 -108v-942q0 -109 108 -109h49q47 0 72 19l-129 116l65 80l101 -78v914zM668 1180v-926q0 -43 -11 -88l86 -55l-102 -129l-57 57q-63 -51 -183 -51h-61q-266 0 -266 266v926q0 266 266 266h61q267 0 267 -266z" />
    <glyph glyph-name="a.alt" horiz-adv-x="684" 
d="M223 881v-656q0 -90 90 -90q76 1 144 58v720q-68 57 -144 58q-90 0 -90 -90zM612 1106v-1106h-155v72q-81 -84 -185 -84t-154 59t-50 160v692q0 99 50 159t154 60t185 -80v68h155z" />
    <glyph glyph-name="y.alt" horiz-adv-x="647" 
d="M350 -225h-153l51 239l-215 1092h157l136 -793l135 793h153z" />
    <glyph glyph-name="aacute.alt" horiz-adv-x="684" 
d="M303 1198l74 215h158l-127 -215h-105zM223 881v-656q0 -90 90 -90q76 1 144 58v720q-68 57 -144 58q-90 0 -90 -90zM612 1106v-1106h-155v72q-81 -84 -185 -84t-154 59t-50 160v692q0 99 50 159t154 60t185 -80v68h155z" />
    <glyph glyph-name="abreve.alt" horiz-adv-x="684" 
d="M176 1362v51h115v-51q0 -63 63 -64h8q63 0 64 64v51h115v-51q0 -170 -170 -170h-25q-170 0 -170 170zM223 881v-656q0 -90 90 -90q76 1 144 58v720q-68 57 -144 58q-90 0 -90 -90zM612 1106v-1106h-155v72q-81 -84 -185 -84t-154 59t-50 160v692q0 99 50 159t154 60
t185 -80v68h155z" />
    <glyph glyph-name="acircumflex.alt" horiz-adv-x="684" 
d="M428 1413l131 -215h-108l-93 109l-92 -109h-108l131 215h139zM223 881v-656q0 -90 90 -90q76 1 144 58v720q-68 57 -144 58q-90 0 -90 -90zM612 1106v-1106h-155v72q-81 -84 -185 -84t-154 59t-50 160v692q0 99 50 159t154 60t185 -80v68h155z" />
    <glyph glyph-name="adieresis.alt" horiz-adv-x="684" 
d="M309 1389v-191h-135v191h135zM408 1198v191h135v-191h-135zM223 881v-656q0 -90 90 -90q76 1 144 58v720q-68 57 -144 58q-90 0 -90 -90zM612 1106v-1106h-155v72q-81 -84 -185 -84t-154 59t-50 160v692q0 99 50 159t154 60t185 -80v68h155z" />
    <glyph glyph-name="agrave.alt" horiz-adv-x="684" 
d="M340 1413l74 -215h-105l-127 215h158zM223 881v-656q0 -90 90 -90q76 1 144 58v720q-68 57 -144 58q-90 0 -90 -90zM612 1106v-1106h-155v72q-81 -84 -185 -84t-154 59t-50 160v692q0 99 50 159t154 60t185 -80v68h155z" />
    <glyph glyph-name="amacron.alt" horiz-adv-x="684" 
d="M160 1348h397v-136h-397v136zM223 881v-656q0 -90 90 -90q76 1 144 58v720q-68 57 -144 58q-90 0 -90 -90zM612 1106v-1106h-155v72q-81 -84 -185 -84t-154 59t-50 160v692q0 99 50 159t154 60t185 -80v68h155z" />
    <glyph glyph-name="aogonek.alt" horiz-adv-x="684" 
d="M223 881v-656q0 -90 90 -90q76 1 144 58v720q-68 57 -144 58q-90 0 -90 -90zM612 1106v-1106h-20l-17 -29q-20 -35 -20 -59t25 -23h47v-98h-82q-109 0 -109 92v8q0 41 41 105l2 4h-22v72q-81 -84 -185 -84t-154 59t-50 160v692q0 99 50 159t154 60t185 -80v68h155z" />
    <glyph glyph-name="aring.alt" horiz-adv-x="684" 
d="M477 1300v11q0 63 -86 63h-65q-86 0 -86 -63v-11q0 -63 88 -63h63q86 0 86 63zM528 1311v-11q0 -109 -129 -108h-82q-129 0 -129 108v11q0 109 129 108h82q129 1 129 -108zM223 881v-656q0 -90 90 -90q76 1 144 58v720q-68 57 -144 58q-90 0 -90 -90zM612 1106v-1106
h-155v72q-81 -84 -185 -84t-154 59t-50 160v692q0 99 50 159t154 60t185 -80v68h155z" />
    <glyph glyph-name="aringacute.alt" horiz-adv-x="684" 
d="M297 1489l74 215h157l-127 -215h-104zM467 1300v11q0 63 -86 63h-66q-86 0 -86 -63v-11q0 -63 88 -63h64q86 0 86 63zM518 1311v-11q0 -109 -129 -108h-82q-129 0 -129 108v11q0 109 129 108h82q129 1 129 -108zM223 881v-656q0 -90 90 -90q76 1 144 58v720
q-68 57 -144 58q-90 0 -90 -90zM612 1106v-1106h-155v72q-81 -84 -185 -84t-154 59t-50 160v692q0 99 50 159t154 60t185 -80v68h155z" />
    <glyph glyph-name="atilde.alt" horiz-adv-x="684" 
d="M244 1413h4q53 0 102 -37l49 -37q33 -25 43 -24h2q18 0 19 24v74h104v-119q0 -96 -94 -96h-4q-53 0 -102 37l-50 37q-33 25 -43 24h-2q-18 0 -18 -24v-74h-104v119q0 96 94 96zM223 881v-656q0 -90 90 -90q76 1 144 58v720q-68 57 -144 58q-90 0 -90 -90zM612 1106v-1106
h-155v72q-81 -84 -185 -84t-154 59t-50 160v692q0 99 50 159t154 60t185 -80v68h155z" />
    <glyph glyph-name="Gcommaaccent.alt" horiz-adv-x="737" 
d="M508 612h-133v150h293v-508q0 -266 -267 -266h-61q-266 0 -266 266v926q0 266 266 266h61q262 0 263 -262v-197h-160v201q0 109 -109 108h-49q-109 0 -108 -108v-942q0 -109 108 -109h53q109 0 109 109v366zM438 -92v-37q0 -96 -47 -190h-96q25 92 24 188v39h119z" />
    <glyph glyph-name="gcommaaccent.alt" horiz-adv-x="684" 
d="M293 1198v37q0 96 47 190h96q-25 -92 -24 -188v-39h-119zM223 881v-531q0 -90 90 -90q74 0 144 53v600q-68 57 -144 58q-90 0 -90 -90zM612 1106v-1100q0 -240 -241 -239h-82q-217 0 -217 215v59h145v-53q0 -86 80 -86h80q80 0 80 86v200q-81 -76 -185 -76t-154 60
q-50 59 -50 160v567q0 99 50 159t154 60t185 -80v68h155z" />
    <glyph glyph-name="Kcommaaccent.alt" horiz-adv-x="708" 
d="M416 -92v-37q0 -96 -47 -190h-97q25 92 25 188v39h119zM242 0h-164v1434h164v-695l282 695h174l-295 -705l287 -729h-180l-268 705v-705z" />
    <glyph glyph-name="kcommaaccent.alt" horiz-adv-x="643" 
d="M395 -92v-37q0 -96 -47 -190h-96q25 92 24 188v39h119zM227 0h-155v1454h155v-885l242 537h166l-258 -541l250 -565h-170l-230 549v-549z" />
    <glyph glyph-name="Lcommaaccent.alt" horiz-adv-x="555" 
d="M78 1434h164v-1282h270v-152h-434v1434zM324 -92v-37q0 -96 -48 -190h-96q25 92 25 188v39h119z" />
    <glyph glyph-name="lcommaaccent.alt" horiz-adv-x="311" 
d="M78 0v1454h155v-1454h-155zM223 -92v-37q0 -96 -47 -190h-96q25 92 24 188v39h119z" />
    <glyph glyph-name="Ncommaaccent.alt" horiz-adv-x="774" 
d="M455 -92v-37q0 -96 -47 -190h-97q25 92 25 188v39h119zM696 0h-204l-259 1122v-1122h-155v1434h225l238 -1035v1035h155v-1434z" />
    <glyph glyph-name="ncommaaccent.alt" horiz-adv-x="681" 
d="M410 -92v-37q0 -96 -48 -190h-96q25 92 25 188v39h119zM72 0v1106h155v-72q88 84 197 84q188 0 188 -198v-920h-155v887q0 84 -80 84q-72 0 -150 -56v-915h-155z" />
    <glyph glyph-name="Oslash.alt" horiz-adv-x="741" 
d="M346 137h49q109 0 109 109v164l4 641l-240 -891q23 -23 78 -23zM346 1296q-109 0 -108 -108v-148l-5 -659l240 893q-29 23 -78 22h-49zM668 254q0 -266 -267 -266h-61q-66 0 -121 16l-20 -70h-131l45 154q-39 59 -39 166v926q0 266 266 266h61q70 0 119 -19l23 72h131
l-45 -153q39 -63 39 -166v-926z" />
    <glyph glyph-name="oslash.alt" horiz-adv-x="675" 
d="M356 973h-37q-98 0 -98 -99v-65l-4 -533l201 682q-23 15 -62 15zM455 231v50l4 548l-201 -682q20 -14 61 -14h37q99 0 99 98zM360 -12h-45q-63 0 -106 14l-21 -68h-122l45 136q-45 59 -45 168v630q0 250 249 250h45q63 0 107 -14l20 67h123l-45 -137q45 -63 45 -166v-630
q0 -250 -250 -250z" />
    <glyph glyph-name="Oslashacute.alt" horiz-adv-x="741" 
d="M315 1526l86 174h158l-139 -174h-105zM346 137h49q109 0 109 109v164l4 641l-240 -891q23 -23 78 -23zM346 1296q-109 0 -108 -108v-148l-5 -659l240 893q-29 23 -78 22h-49zM668 254q0 -266 -267 -266h-61q-66 0 -121 16l-20 -70h-131l45 154q-39 59 -39 166v926
q0 266 266 266h61q70 0 119 -19l23 72h131l-45 -153q39 -63 39 -166v-926z" />
    <glyph glyph-name="oslashacute.alt" horiz-adv-x="675" 
d="M283 1198l73 215h158l-127 -215h-104zM356 973h-37q-98 0 -98 -99v-65l-4 -533l201 682q-23 15 -62 15zM455 231v50l4 548l-201 -682q20 -14 61 -14h37q99 0 99 98zM360 -12h-45q-63 0 -106 14l-21 -68h-122l45 136q-45 59 -45 168v630q0 250 249 250h45q63 0 107 -14
l20 67h123l-45 -137q45 -63 45 -166v-630q0 -250 -250 -250z" />
    <glyph glyph-name="Rcommaaccent.alt" horiz-adv-x="724" 
d="M485 1176q0 109 -108 108h-135v-536h123q121 0 120 120v308zM651 483v-483h-164v477q0 125 -125 125h-120v-602h-164v1434h305q266 0 266 -267v-266q0 -174 -127 -225q129 -35 129 -193zM416 -92v-37q0 -96 -47 -190h-97q25 92 25 188v39h119z" />
    <glyph glyph-name="rcommaaccent.alt" horiz-adv-x="434" 
d="M72 0v1106h155v-117q37 67 77 97t102 30v-176q-111 -8 -179 -70v-870h-155zM215 -92v-37q0 -96 -47 -190h-96q25 92 24 188v39h119z" />
    <glyph glyph-name="Scommaaccent.alt" horiz-adv-x="712" 
d="M645 463v-209q0 -266 -266 -266h-45q-262 0 -262 262v301h159v-307q0 -109 109 -109h33q109 0 108 109v215q0 51 -16 80t-55 57l-201 145q-78 55 -108 115t-29 152v172q0 266 266 266h41q262 0 262 -262v-258h-160v264q0 109 -108 108h-29q-109 0 -108 -108v-180
q0 -51 17 -80t56 -58l199 -143q78 -57 108 -115t29 -151zM426 -92v-37q0 -96 -47 -190h-96q25 92 24 188v39h119z" />
    <glyph glyph-name="scommaaccent.alt" horiz-adv-x="651" 
d="M434 717v166q0 94 -94 94h-27q-94 0 -94 -94v-97q0 -70 57 -104l185 -115q69 -45 99 -92t30 -127v-110q0 -250 -250 -250h-31q-246 0 -246 245v164h154v-174q0 -94 94 -94h31q94 0 94 94v105q0 68 -57 104l-184 115q-70 45 -100 92t-29 127v102q0 250 249 250h27
q246 0 246 -246v-155h-154zM393 -92v-37q0 -96 -47 -190h-96q25 92 24 188v39h119z" />
    <glyph glyph-name="Tcommaaccent.alt" horiz-adv-x="634" 
d="M399 0h-163v1282h-216v152h594v-152h-215v-1282zM385 -92v-37q0 -96 -47 -190h-96q25 92 24 188v39h119z" />
    <glyph glyph-name="tcommaaccent.alt" horiz-adv-x="409" 
d="M268 963v-963h-155v963h-74v143h74v184h155v-184h113v-143h-113zM262 -92v-37q0 -96 -47 -190h-96q25 92 24 188v39h119z" />
    <glyph glyph-name="yacute.alt" horiz-adv-x="647" 
d="M272 1198l74 215h158l-127 -215h-105zM350 -225h-153l51 239l-215 1092h157l136 -793l135 793h153z" />
    <glyph glyph-name="ycircumflex.alt" horiz-adv-x="647" 
d="M397 1413l131 -215h-108l-92 109l-92 -109h-109l131 215h139zM350 -225h-153l51 239l-215 1092h157l136 -793l135 793h153z" />
    <glyph glyph-name="ydieresis.alt" horiz-adv-x="647" 
d="M377 1198v191h135v-191h-135zM279 1389v-191h-136v191h136zM350 -225h-153l51 239l-215 1092h157l136 -793l135 793h153z" />
    <glyph glyph-name="ygrave.alt" horiz-adv-x="647" 
d="M309 1413l74 -215h-104l-127 215h157zM350 -225h-153l51 239l-215 1092h157l136 -793l135 793h153z" />
    <glyph glyph-name="comma.alt" horiz-adv-x="282" 
d="M221 238v-82q0 -143 -67 -338h-123q39 193 39 344v76h151z" />
    <glyph glyph-name="semicolon.alt" horiz-adv-x="282" 
d="M221 1106v-238h-160v238h160zM221 238v-82q0 -143 -67 -338h-123q39 193 39 344v76h151z" />
    <glyph glyph-name="colon.fig" horiz-adv-x="282" 
d="M221 1083v-237h-160v237h160zM221 590v-238h-160v238h160z" />
    <glyph glyph-name="ampersand.alt" horiz-adv-x="720" 
d="M236 549v-303q0 -109 108 -109h33q109 0 108 109v411h-145q-104 1 -104 -108zM702 657h-63v-403q0 -266 -266 -266h-33q-266 0 -266 266v303q0 150 123 184q-119 45 -119 213v226q0 266 266 266h29q262 0 262 -262v-217h-154v221q0 109 -104 108h-33q-104 0 -104 -108
v-279q0 -109 104 -108h358v-144z" />
    <glyph glyph-name="quotedblleft.alt" horiz-adv-x="536" 
d="M61 1014v82q0 143 68 338h129q-43 -188 -43 -344v-76h-154zM315 1014v82q0 166 56 338h131q-35 -184 -35 -344v-76h-152z" />
    <glyph glyph-name="quotedblright.alt" horiz-adv-x="536" 
d="M475 1434v-82q0 -143 -67 -338h-129q43 188 43 344v76h153zM221 1434v-82q0 -166 -55 -338h-131q35 184 35 344v76h151z" />
    <glyph glyph-name="quoteleft.alt" horiz-adv-x="282" 
d="M61 1014v82q0 143 68 338h123q-39 -193 -39 -344v-76h-152z" />
    <glyph glyph-name="quoteright.alt" horiz-adv-x="282" 
d="M221 1434v-82q0 -143 -67 -338h-123q39 193 39 344v76h151z" />
    <glyph glyph-name="quotedblbase.alt" horiz-adv-x="536" 
d="M518 238v-82q0 -143 -67 -338h-129q43 188 43 344v76h153zM264 238v-82q0 -166 -55 -338h-131q35 184 35 344v76h151z" />
    <glyph glyph-name="quotesinglbase.alt" horiz-adv-x="282" 
d="M221 238v-82q0 -143 -67 -338h-123q39 193 39 344v76h151z" />
    <glyph glyph-name="guillemotleft.cap" horiz-adv-x="499" 
d="M231 729l111 338h129l-92 -338l92 -338h-123zM10 729l125 338h129l-106 -338l106 -338h-123z" />
    <glyph glyph-name="guillemotright.cap" horiz-adv-x="499" 
d="M158 1067l110 -338l-116 -338h-123l92 338l-92 338h129zM365 1067l124 -338l-131 -338h-122l106 338l-106 338h129z" />
    <glyph glyph-name="guilsinglleft.cap" horiz-adv-x="333" 
d="M10 729l154 338h141l-135 -338l135 -338h-135z" />
    <glyph glyph-name="guilsinglright.cap" horiz-adv-x="333" 
d="M170 1067l154 -338l-160 -338h-135l135 338l-135 338h141z" />
    <glyph glyph-name="hyphen.cap" horiz-adv-x="421" 
d="M33 803h356v-148h-356v148z" />
    <glyph glyph-name="endash.cap" horiz-adv-x="749" 
d="M33 799h684v-140h-684v140z" />
    <glyph glyph-name="emdash.cap" horiz-adv-x="1171" 
d="M33 799h1073v-140h-1073v140z" />
    <glyph glyph-name="at.alt" horiz-adv-x="1015" 
d="M479 350q45 0 113 45v322l-117 -41q-55 -18 -55 -82v-176q0 -68 59 -68zM791 229h-50q-61 -1 -90 19t-41 67q-70 -88 -172 -88q-72 0 -110 42t-37 116v219q0 76 26 115q27 39 95 61l180 62v164q0 82 -76 81h-8q-80 0 -80 -81v-117h-127v123q0 201 199 200h22
q199 0 199 -200v-656q0 -57 53 -57h17q70 0 69 100v713q0 152 -54 209t-192 57h-213q-137 0 -191 -57t-54 -209v-788q0 -152 54 -209t191 -58h476v-69h-476q-179 0 -249 72t-70 264v788q0 186 73 261t246 75h213q174 0 247 -75t73 -261v-717q0 -88 -34 -127t-109 -39z" />
    <glyph glyph-name="registered.alt" horiz-adv-x="1015" 
d="M602 1047q0 70 -72 69h-96v-385h82q86 0 86 84v232zM733 193h-129v327q0 48 -20 68t-70 20h-80v-415h-129v1050h230q197 0 196 -186v-230q-1 -69 -23 -103t-71 -54q53 -16 75 -47t21 -91v-339zM881 324v786q0 152 -65 220t-202 67h-213q-137 0 -201 -68t-65 -219v-786
q0 -152 65 -220t201 -67h213q137 -1 202 67t65 220zM934 1110v-786q0 -178 -77 -257t-243 -79h-213q-167 0 -243 79t-76 257v786q0 178 77 257t242 79h213q166 0 243 -79t77 -257z" />
    <glyph glyph-name="percent.alt" horiz-adv-x="983" 
d="M731 518h-10q-37 0 -49 -18t-13 -62v-239q1 -45 13 -63t49 -17h8q39 0 52 18t14 62v239q-1 44 -13 62t-51 18zM262 1315h-8q-39 -1 -52 -19t-14 -61v-260q0 -43 14 -61t52 -19h10q37 0 48 17t12 63v260q0 45 -12 63t-50 17zM819 1438l-274 -756l-244 -686h-133l274 747
l244 695h133zM713 649h28q97 0 141 -48t44 -152v-261q0 -104 -43 -152t-142 -48h-28q-98 0 -142 49q-43 49 -43 151v261q0 102 43 151q44 49 142 49zM270 764h-28q-98 0 -142 48q-43 48 -43 153v280q0 105 43 153t142 48h28q98 0 142 -49t43 -152v-280q0 -102 -43 -152
q-44 -49 -142 -49z" />
    <glyph glyph-name="NUL" horiz-adv-x="0" 
 />
    <glyph glyph-name="hfjslug" horiz-adv-x="1421" 
d="M872 580q-33 0 -32 34q0 12 9 24t23 11q14 0 24 -11t9 -24q0 -34 -33 -34zM997 612h-22v35h22q20 0 21 -16q-1 -19 -21 -19zM659 823q-33 0 -33 45t33 78l41 -80q-16 -43 -41 -43zM645 1056q0 30 29 29q27 -1 27 -35t-31 -69q-25 45 -25 75zM494 662l28 -97h17l22 70h2
l23 -70h16l29 97h-17l-20 -72h-2l-23 72h-14l-23 -72h-2l-20 72h-16zM270 662v-95h17v66l51 -66h14v95h-16v-66l-51 66h-15zM395 662v-95h70v15h-53v26h47v15h-47v24h53v15h-70zM750 567h16v35l37 60h-19l-26 -46l-27 46h-18l37 -60v-35zM872 565q20 1 34 15q33 33 1 68
q-15 16 -35 16t-34 -16t-14 -34q0 -20 14 -34t34 -15zM1034 631q0 31 -35 31h-41v-95h17v31h24l21 -31h18l-24 35q20 8 20 29zM1071 662v-95h16v25l17 16l31 -41h20l-41 54l37 41h-21l-40 -50h-3v50h-16zM729 1047q0 63 -55 63q-25 0 -41 -18q-35 -39 12 -125
q-47 -37 -47 -83q0 -91 59 -89q39 0 60 49h2l24 -49l25 12l-35 65q13 29 27 80l-27 6q-8 -37 -16 -61h-2l-33 64q47 43 47 86zM985 799q63 0 64 73v281h-33v-281q0 -45 -33 -45q-16 0 -41 11v-31q20 -8 43 -8zM377 1153v-352h31v162h96v-162h31v352h-31v-162h-96v162h-31z
M819 1153v-352h31v160h78v28h-78v135h88v29h-119zM1319 -410h-426l-16 29h-334l-17 -29h-424v621q29 0 48 19q18 19 18 46q0 26 -20 46t-46 20v1135h205l62 161h684l59 -161h207v-1887z" />
    <glyph glyph-name="i.dot" horiz-adv-x="311" 
d="M78 0v1106h155v-1106h-155zM74 1219v174h164v-174h-164z" />
    <glyph glyph-name="caron.alt" 
d="M401 1212v242h127l-53 -242h-74z" />
    <glyph glyph-name="acute.cap" 
d="M406 1526l86 174h157l-139 -174h-104z" />
    <glyph glyph-name="hungarumlaut.cap" 
d="M504 1526l74 174h147l-137 -174h-84zM334 1526l74 174h147l-137 -174h-84z" />
    <glyph glyph-name="grave.cap" 
d="M573 1700l86 -174h-104l-139 174h157z" />
    <glyph glyph-name="circumflex.cap" 
d="M582 1716l139 -190h-109l-100 90l-100 -90h-109l139 190h140z" />
    <glyph glyph-name="caron.cap" 
d="M721 1716l-139 -190h-140l-139 190h109l100 -90l100 90h109z" />
    <glyph glyph-name="breve.cap" 
d="M326 1673v27h114v-17q0 -57 64 -57h16q63 0 64 57v17h114v-27q0 -154 -170 -153h-32q-170 -1 -170 153z" />
    <glyph glyph-name="tilde.cap" 
d="M391 1720h6q53 0 97 -26l69 -43q20 -12 37 -13h2q18 0 19 25v57h104v-98q0 -96 -92 -96h-6q-53 0 -97 26l-69 43q-20 12 -37 13h-2q-18 0 -19 -25v-57h-104v98q0 96 92 96z" />
    <glyph glyph-name="macron.cap" 
d="M313 1655h398v-115h-398v115z" />
    <glyph glyph-name="dieresis.cap" 
d="M463 1675v-149h-139v149h139zM561 1526v149h139v-149h-139z" />
    <glyph glyph-name="dotaccent.cap" 
d="M584 1659v-133h-144v133h144z" />
    <glyph glyph-name="ring.cap" 
d="M655 1626v6q0 61 -82 62h-122q-82 0 -82 -62v-6q0 -61 82 -61h122q82 0 82 61zM707 1634v-10q0 -104 -125 -104h-140q-125 0 -125 104v10q0 104 125 105h140q125 -1 125 -105z" />
    <glyph glyph-name="commaaccent.alt" 
d="M582 -92v-37q0 -96 -47 -190h-97q25 92 25 188v39h119z" />
    </font>
</defs>
</svg>
